<svg width="32" height="32" viewBox="0 0 32 32" fill="none" xmlns="http://www.w3.org/2000/svg">
<path d="M11 4.5H19.1086C19.3602 4.5 19.6026 4.59489 19.7874 4.76573L26.7653 11.217C26.9501 11.3878 27.1925 11.4827 27.4442 11.4827H30.5C31.0523 11.4827 31.5 11.9304 31.5 12.4827V15.4827C31.5 16.035 31.0523 16.4827 30.5 16.4827H25.4422C25.1816 16.4827 24.9312 16.3809 24.7445 16.1991L23.0067 14.5065C22.6147 14.1248 21.9887 14.1289 21.6018 14.5158L20.3315 15.7861C19.9368 16.1809 19.9417 16.8223 20.3424 17.211L23.7122 20.4798C23.9063 20.6682 24.0159 20.9271 24.0159 21.1976V30.0009C24.0159 30.5531 23.5682 31.0009 23.0159 31.0009H19.0159V31.0009C18.7321 31.0009 18.5032 30.7687 18.5071 30.485L18.611 22.9231C18.6147 22.6531 18.5091 22.3932 18.3182 22.2023L16.8904 20.7745L16.8239 20.708C16.4334 20.3174 15.8002 20.3174 15.4097 20.708L6.82391 29.2937C6.43339 29.6843 5.80022 29.6843 5.4097 29.2937L5.11681 29.0009L2.7096 26.5937C2.31811 26.2022 2.31923 25.5671 2.7121 25.177L16.778 11.2099C17.4115 10.5809 16.966 9.50018 16.0733 9.50028L11 9.50086M11 4.5V9.50086M11 4.5H9M11 9.50086L9 9.5M9 9.5V4.5M9 9.5V11.9997C9 12.5521 8.55208 12.9999 7.99967 12.9997L5.5 12.9988M9 4.5V1.99967C9 1.44752 8.55249 0.999854 8.00033 0.999671L5.5 0.99884M5.5 0.99884L1.49977 0.99977C0.947574 0.999898 0.5 1.44758 0.5 1.99977V11.9998C0.5 12.5521 0.947857 12.9999 1.50023 12.9998L5.5 12.9988M5.5 0.99884V12.9988" stroke="#FFEDD6" stroke-linejoin="round"/>
<circle cx="27.8848" cy="4.5" r="3.5" stroke="#FFEDD6"/>
</svg>
