<svg width="32" height="32" viewBox="0 0 32 32" fill="none" xmlns="http://www.w3.org/2000/svg">
<path d="M24 20V24C24 28.1421 20.2739 31 16 31C13.9683 31 12.3807 30.2412 11 29" stroke="#FFEDD6" stroke-linecap="round" stroke-linejoin="round"/>
<path d="M9 14L1 11L16 4L31 11L24 14M9 14L16 17L24 14M9 14L16 11M9 14V20M9 25C8.5 25 7 25.4 7 27C7 28.6 8.5 29.5 9 30C9.5 29.5 10 28.6 10 27C10 25.4 9.5 25 9 25ZM9 25V20M9 20C10 20.6667 12.4 22 16 22C19.6 22 22.8333 20.6667 24 20V14" stroke="#FFEDD6" stroke-linecap="round" stroke-linejoin="round"/>
</svg>
