<svg width="90" height="19" viewBox="0 0 90 19" fill="none" xmlns="http://www.w3.org/2000/svg">
<path fill-rule="evenodd" clip-rule="evenodd" d="M7.6471 2.10846C7.85899 1.96385 8.14101 1.96385 8.3529 2.10846L14.5067 6.30846C14.7268 6.45864 14.8215 6.73062 14.7408 6.98038C14.66 7.23015 14.4224 7.4 14.1538 7.4H1.84615C1.57756 7.4 1.33999 7.23015 1.25924 6.98038C1.17849 6.73062 1.27321 6.45864 1.49325 6.30846L7.6471 2.10846ZM3.79838 6.2H12.2016L8 3.33239L3.79838 6.2ZM4.30769 8C4.64756 8 4.92308 8.26863 4.92308 8.6L4.92308 12.8C4.92308 13.1314 4.64756 13.4 4.30769 13.4C3.96782 13.4 3.69231 13.1314 3.69231 12.8L3.69231 8.6C3.69231 8.26863 3.96782 8 4.30769 8ZM8 8C8.33987 8 8.61539 8.26863 8.61539 8.6V12.8C8.61539 13.1314 8.33987 13.4 8 13.4C7.66013 13.4 7.38462 13.1314 7.38462 12.8V8.6C7.38462 8.26863 7.66013 8 8 8ZM11.6923 8C12.0322 8 12.3077 8.26863 12.3077 8.6V12.8C12.3077 13.1314 12.0322 13.4 11.6923 13.4C11.3524 13.4 11.0769 13.1314 11.0769 12.8V8.6C11.0769 8.26863 11.3524 8 11.6923 8ZM1.84615 14.6C1.84615 14.2686 2.12167 14 2.46154 14L14.1538 14C14.4937 14 14.7692 14.2686 14.7692 14.6C14.7692 14.9314 14.4937 15.2 14.1538 15.2L2.46154 15.2C2.12167 15.2 1.84615 14.9314 1.84615 14.6ZM0 16.4C3.66798e-08 16.0686 0.275517 15.8 0.615385 15.8L15.3846 15.8C15.7245 15.8 16 16.0686 16 16.4C16 16.7314 15.7245 17 15.3846 17L0.615385 17C0.275517 17 0 16.7314 0 16.4Z" fill="#003366"/>
<path d="M22.12 16V4.48H23.632L27.808 13.144L31.96 4.48H33.488V15.992H31.904V8.112L28.184 16H27.424L23.696 8.112V16H22.12ZM35.8894 5.944V4.32H37.5614V5.944H35.8894ZM35.8894 16V7.36H37.5614V16H35.8894ZM46.0278 16V11.752C46.0278 11.416 45.9984 11.072 45.9398 10.72C45.8864 10.3627 45.7798 10.032 45.6198 9.728C45.4651 9.424 45.2438 9.17867 44.9558 8.992C44.6731 8.80533 44.3024 8.712 43.8438 8.712C43.5451 8.712 43.2624 8.76267 42.9958 8.864C42.7291 8.96 42.4944 9.11733 42.2918 9.336C42.0944 9.55467 41.9371 9.84267 41.8198 10.2C41.7078 10.5573 41.6518 10.992 41.6518 11.504L40.6118 11.112C40.6118 10.328 40.7584 9.63733 41.0518 9.04C41.3451 8.43733 41.7664 7.968 42.3158 7.632C42.8651 7.296 43.5291 7.128 44.3078 7.128C44.9051 7.128 45.4064 7.224 45.8118 7.416C46.2171 7.608 46.5451 7.86133 46.7958 8.176C47.0518 8.48533 47.2464 8.824 47.3798 9.192C47.5131 9.56 47.6038 9.92 47.6518 10.272C47.6998 10.624 47.7238 10.9333 47.7238 11.2V16H46.0278ZM39.9558 16V7.36H41.4518V9.856H41.6518V16H39.9558ZM53.5301 16.24C52.6715 16.24 51.9168 16.0533 51.2661 15.68C50.6208 15.3013 50.1168 14.776 49.7541 14.104C49.3968 13.4267 49.2181 12.6427 49.2181 11.752C49.2181 10.808 49.3941 9.98933 49.7461 9.296C50.1035 8.60267 50.5995 8.06667 51.2341 7.688C51.8688 7.30933 52.6075 7.12 53.4501 7.12C54.3301 7.12 55.0795 7.32533 55.6981 7.736C56.3168 8.14133 56.7781 8.72 57.0821 9.472C57.3915 10.224 57.5141 11.1173 57.4501 12.152H55.7781V11.544C55.7675 10.5413 55.5755 9.8 55.2021 9.32C54.8341 8.84 54.2715 8.6 53.5141 8.6C52.6768 8.6 52.0475 8.864 51.6261 9.392C51.2048 9.92 50.9941 10.6827 50.9941 11.68C50.9941 12.6293 51.2048 13.3653 51.6261 13.888C52.0475 14.4053 52.6555 14.664 53.4501 14.664C53.9728 14.664 54.4235 14.5467 54.8021 14.312C55.1861 14.072 55.4848 13.7307 55.6981 13.288L57.3381 13.808C57.0021 14.5813 56.4928 15.1813 55.8101 15.608C55.1275 16.0293 54.3675 16.24 53.5301 16.24ZM50.4501 12.152V10.848H56.6181V12.152H50.4501ZM64.053 16.24C62.901 16.24 61.9197 15.9893 61.109 15.488C60.2983 14.9813 59.677 14.2773 59.245 13.376C58.8183 12.4747 58.605 11.4293 58.605 10.24C58.605 9.05067 58.8183 8.00533 59.245 7.104C59.677 6.20267 60.2983 5.50133 61.109 5C61.9197 4.49333 62.901 4.24 64.053 4.24C65.381 4.24 66.4797 4.576 67.349 5.248C68.2237 5.92 68.8317 6.824 69.173 7.96L67.477 8.416C67.253 7.61067 66.853 6.97867 66.277 6.52C65.7063 6.06133 64.965 5.832 64.053 5.832C63.237 5.832 62.557 6.016 62.013 6.384C61.469 6.752 61.0583 7.26667 60.781 7.928C60.509 8.58933 60.373 9.36 60.373 10.24C60.3677 11.12 60.501 11.8907 60.773 12.552C61.0503 13.2133 61.461 13.728 62.005 14.096C62.5543 14.464 63.237 14.648 64.053 14.648C64.965 14.648 65.7063 14.4187 66.277 13.96C66.853 13.496 67.253 12.864 67.477 12.064L69.173 12.52C68.8317 13.656 68.2237 14.56 67.349 15.232C66.4797 15.904 65.381 16.24 64.053 16.24ZM71.0925 5.944V4.32H72.7645V5.944H71.0925ZM71.0925 16V7.36H72.7645V16H71.0925ZM80.1109 16C79.5669 16.1067 79.0335 16.152 78.5109 16.136C77.9882 16.12 77.5215 16.0187 77.1109 15.832C76.7002 15.6453 76.3909 15.352 76.1829 14.952C75.9962 14.5947 75.8949 14.232 75.8789 13.864C75.8682 13.4907 75.8629 13.0693 75.8629 12.6V4.96H77.5429V12.52C77.5429 12.8667 77.5455 13.168 77.5509 13.424C77.5615 13.68 77.6175 13.896 77.7189 14.072C77.9109 14.4027 78.2149 14.592 78.6309 14.64C79.0522 14.6827 79.5455 14.664 80.1109 14.584V16ZM74.2069 8.704V7.36H80.1109V8.704H74.2069ZM85.3739 16.24C84.5152 16.24 83.7605 16.0533 83.1099 15.68C82.4645 15.3013 81.9605 14.776 81.5979 14.104C81.2405 13.4267 81.0619 12.6427 81.0619 11.752C81.0619 10.808 81.2379 9.98933 81.5899 9.296C81.9472 8.60267 82.4432 8.06667 83.0779 7.688C83.7125 7.30933 84.4512 7.12 85.2939 7.12C86.1739 7.12 86.9232 7.32533 87.5419 7.736C88.1605 8.14133 88.6219 8.72 88.9259 9.472C89.2352 10.224 89.3579 11.1173 89.2939 12.152H87.6219V11.544C87.6112 10.5413 87.4192 9.8 87.0459 9.32C86.6779 8.84 86.1152 8.6 85.3579 8.6C84.5205 8.6 83.8912 8.864 83.4699 9.392C83.0485 9.92 82.8379 10.6827 82.8379 11.68C82.8379 12.6293 83.0485 13.3653 83.4699 13.888C83.8912 14.4053 84.4992 14.664 85.2939 14.664C85.8165 14.664 86.2672 14.5467 86.6459 14.312C87.0299 14.072 87.3285 13.7307 87.5419 13.288L89.1819 13.808C88.8459 14.5813 88.3365 15.1813 87.6539 15.608C86.9712 16.0293 86.2112 16.24 85.3739 16.24ZM82.2939 12.152V10.848H88.4619V12.152H82.2939Z" fill="#003366"/>
</svg>
