<svg width="48" height="48" viewBox="0 0 48 48" fill="none" xmlns="http://www.w3.org/2000/svg">
<circle cx="24" cy="24" r="23.5" stroke="#003366"/>
<path d="M30.4143 28.6078C29.2988 29.3048 27.8647 29.6822 26.655 29.8834C26.236 29.9531 26.0574 30.4769 26.3623 30.7726L26.7122 31.1119L30.8 35.1343C32.2948 36.642 29.8624 38.9985 28.3516 37.5435C27.4051 36.5976 26.0508 35.2638 24.615 33.8509C24.4202 33.6592 24.1076 33.6594 23.913 33.8513L20.1759 37.5382C18.6651 38.988 16.2327 36.6104 17.7436 35.129C18.7829 34.1063 20.267 32.6302 21.8314 31.1066L22.179 30.7646C22.4803 30.4681 22.3012 29.9495 21.8839 29.8821C20.6701 29.6861 19.211 29.317 18.0811 28.6025C16.3345 27.4955 15.5684 26.847 16.2434 25.4922C16.6399 24.7225 17.7275 24.0741 19.1687 25.1917C19.1687 25.1917 21.1135 26.7152 24.253 26.7152C27.3926 26.7152 29.3374 25.1917 29.3374 25.1917C30.7786 24.0793 31.8608 24.7225 32.2626 25.4922C32.927 26.847 32.1608 27.4955 30.4143 28.6078ZM17.2989 16.8375C17.2989 13.0576 20.4223 10 24.2477 10C28.073 10 31.1965 13.0576 31.1965 16.8375C31.1965 20.6016 28.073 23.6592 24.2477 23.6592C20.4223 23.6592 17.2989 20.6016 17.2989 16.8375ZM20.8349 16.8375C20.8349 18.6879 22.3672 20.1957 24.2477 20.1957C26.1282 20.1957 27.6605 18.6879 27.6605 16.8375C27.6605 14.9713 26.1282 13.4636 24.2477 13.4636C22.3672 13.4636 20.8349 14.9713 20.8349 16.8375Z" stroke="#003366"/>
</svg>
