<svg width="32" height="32" viewBox="0 0 32 32" fill="none" xmlns="http://www.w3.org/2000/svg">
<circle cx="3.5" cy="28.5" r="2.5" stroke="#FFEDD6"/>
<circle cx="10.5" cy="28.5" r="2.5" stroke="#FFEDD6"/>
<circle cx="17.5" cy="28.5" r="2.5" stroke="#FFEDD6"/>
<circle cx="27" cy="7" r="3" stroke="#FFEDD6"/>
<path d="M21 23H1V1H31V3" stroke="#FFEDD6" stroke-linecap="round" stroke-linejoin="round"/>
<path d="M27 31H30C30.5523 31 31 30.5523 31 30V13C31 12.4477 30.5523 12 30 12H23H14C13.4477 12 13 12.4477 13 13V15C13 15.5523 13.4477 16 14 16H22C22.5523 16 23 16.4477 23 17V30C23 30.5523 23.4477 31 24 31H27ZM27 31V21" stroke="#FFEDD6" stroke-linecap="round" stroke-linejoin="round"/>
</svg>
