<svg width="48" height="48" viewBox="0 0 48 48" fill="none" xmlns="http://www.w3.org/2000/svg">
<circle cx="24" cy="24" r="23.5" stroke="#003366"/>
<path d="M12.5 34.5V16H31C33.2091 16 35 17.7909 35 20V25.5C35 27.1569 33.6569 28.5 32 28.5H31L35.5 34.5H30.5L26 28.5H17V34.5H12.5Z" stroke="#003366" stroke-linejoin="round"/>
<path d="M17 21C17 20.4477 17.4477 20 18 20H28.5C29.6046 20 30.5 20.8954 30.5 22V22.5C30.5 23.6046 29.6046 24.5 28.5 24.5H18C17.4477 24.5 17 24.0523 17 23.5V21Z" stroke="#003366"/>
<circle cx="35" cy="14" r="1" fill="#003366"/>
</svg>
