<svg width="48" height="48" viewBox="0 0 48 48" fill="none" xmlns="http://www.w3.org/2000/svg">
<circle cx="24" cy="24" r="23.5" stroke="#003366"/>
<path d="M21.079 28.4706V17H25.2931V23.5294C26.3466 23.5294 27.9239 22.6856 29.1559 21.3235C30.4728 19.8676 31.3069 17.9118 31.5263 17H35.7843C35.7404 17.7941 34.7445 20.1999 33.7651 21.6765C32.6237 23.3971 30.8972 24.6324 30.0339 25.2059C30.663 25.5147 32.3253 26.5471 33.9406 28.2059C35.556 29.8647 36.4866 32.4265 36.75 33.5H32.097C31.9507 32.8382 31.2717 31.1353 29.7266 29.6176C28.1814 28.1 26.1271 27.6324 25.2931 27.5882V33.5C21.8691 33.5 16.4656 32.6618 13.3094 27.7206C11.0268 24.1471 10.6024 19.4118 10.5 17H15.0213C15.0213 17.75 14.995 20.0353 16.1187 23.3529C17.2425 26.6706 19.8938 28.1471 21.079 28.4706Z" stroke="#003366" stroke-linejoin="round"/>
</svg>
