<svg width="1920" height="62" viewBox="0 0 1920 62" fill="none" xmlns="http://www.w3.org/2000/svg">
<rect width="1920" height="62" fill="#C19D60"/>
<path d="M6 37C4.89979 34.3427 2.73774 32.1904 0 31C2.73774 29.8096 4.89979 27.6573 6 25C7.10021 27.6573 9.26226 29.8096 12 31C9.26226 32.1904 7.10021 34.3427 6 37Z" fill="white"/>
<path d="M54.8368 19.3819L51.4474 16L48.0655 19.3819C45.8888 21.5586 45.7833 25.0158 47.7417 27.3131C45.4369 25.3548 41.9797 25.4602 39.8105 27.637L36.4286 31.0188L39.8105 34.4007C41.9194 36.5097 45.241 36.6678 47.5383 34.8903C45.7608 37.1875 45.9189 40.5092 48.0279 42.6181L51.4098 46L54.7916 42.6181C56.9684 40.4414 57.0738 36.9842 55.1155 34.6869C57.4203 36.6452 60.8775 36.5398 63.0467 34.363L66.4286 30.9812L63.0467 27.5993C60.9378 25.4903 57.6161 25.3322 55.3189 27.1097C57.0964 24.8125 56.9383 21.4908 54.8293 19.3819H54.8368Z" fill="#F7F6F5"/>
<path d="M51.4287 34.5716C50.7738 32.9898 49.4869 31.7087 47.8573 31.0001C49.4869 30.2916 50.7738 29.0104 51.4287 27.4287C52.0836 29.0104 53.3706 30.2916 55.0002 31.0001C53.3706 31.7087 52.0836 32.9898 51.4287 34.5716Z" fill="#C19D60"/>
<path d="M96.8571 37C95.7569 34.3427 93.5949 32.1904 90.8571 31C93.5949 29.8096 95.7569 27.6573 96.8571 25C97.9574 27.6573 100.119 29.8096 102.857 31C100.119 32.1904 97.9574 34.3427 96.8571 37Z" fill="white"/>
<path d="M145.694 19.3819L142.305 16L138.923 19.3819C136.746 21.5586 136.64 25.0158 138.599 27.3131C136.294 25.3548 132.837 25.4602 130.668 27.637L127.286 31.0188L130.668 34.4007C132.777 36.5097 136.098 36.6678 138.395 34.8903C136.618 37.1875 136.776 40.5092 138.885 42.6181L142.267 46L145.649 42.6181C147.826 40.4414 147.931 36.9842 145.973 34.6869C148.277 36.6452 151.735 36.5398 153.904 34.363L157.286 30.9812L153.904 27.5993C151.795 25.4903 148.473 25.3322 146.176 27.1097C147.954 24.8125 147.795 21.4908 145.686 19.3819H145.694Z" fill="#F7F6F5"/>
<path d="M142.286 34.5716C141.631 32.9898 140.344 31.7087 138.714 31.0001C140.344 30.2916 141.631 29.0104 142.286 27.4287C142.941 29.0104 144.228 30.2916 145.857 31.0001C144.228 31.7087 142.941 32.9898 142.286 34.5716Z" fill="#C19D60"/>
<path d="M187.714 37C186.614 34.3427 184.452 32.1904 181.714 31C184.452 29.8096 186.614 27.6573 187.714 25C188.815 27.6573 190.977 29.8096 193.714 31C190.977 32.1904 188.815 34.3427 187.714 37Z" fill="white"/>
<path d="M236.551 19.3819L233.162 16L229.78 19.3819C227.603 21.5586 227.498 25.0158 229.456 27.3131C227.151 25.3548 223.694 25.4602 221.525 27.637L218.143 31.0188L221.525 34.4007C223.634 36.5097 226.955 36.6678 229.253 34.8903C227.475 37.1875 227.633 40.5092 229.742 42.6181L233.124 46L236.506 42.6181C238.683 40.4414 238.788 36.9842 236.83 34.6869C239.135 36.6452 242.592 36.5398 244.761 34.363L248.143 30.9812L244.761 27.5993C242.652 25.4903 239.33 25.3322 237.033 27.1097C238.811 24.8125 238.653 21.4908 236.544 19.3819H236.551Z" fill="#F7F6F5"/>
<path d="M233.143 34.5716C232.488 32.9898 231.201 31.7087 229.572 31.0001C231.201 30.2916 232.488 29.0104 233.143 27.4287C233.798 29.0104 235.085 30.2916 236.714 31.0001C235.085 31.7087 233.798 32.9898 233.143 34.5716Z" fill="#C19D60"/>
<path d="M278.571 37C277.471 34.3427 275.309 32.1904 272.571 31C275.309 29.8096 277.471 27.6573 278.571 25C279.672 27.6573 281.834 29.8096 284.571 31C281.834 32.1904 279.672 34.3427 278.571 37Z" fill="white"/>
<path d="M327.408 19.3819L324.019 16L320.637 19.3819C318.46 21.5586 318.355 25.0158 320.313 27.3131C318.008 25.3548 314.551 25.4602 312.382 27.637L309 31.0188L312.382 34.4007C314.491 36.5097 317.812 36.6678 320.11 34.8903C318.332 37.1875 318.49 40.5092 320.599 42.6181L323.981 46L327.363 42.6181C329.54 40.4414 329.645 36.9842 327.687 34.6869C329.992 36.6452 333.449 36.5398 335.618 34.363L339 30.9812L335.618 27.5993C333.509 25.4903 330.188 25.3322 327.89 27.1097C329.668 24.8125 329.51 21.4908 327.401 19.3819H327.408Z" fill="#F7F6F5"/>
<path d="M324 34.5716C323.345 32.9898 322.058 31.7087 320.429 31.0001C322.058 30.2916 323.345 29.0104 324 27.4287C324.655 29.0104 325.942 30.2916 327.572 31.0001C325.942 31.7087 324.655 32.9898 324 34.5716Z" fill="#C19D60"/>
<path d="M369.429 37C368.328 34.3427 366.166 32.1904 363.429 31C366.166 29.8096 368.328 27.6573 369.429 25C370.529 27.6573 372.691 29.8096 375.429 31C372.691 32.1904 370.529 34.3427 369.429 37Z" fill="white"/>
<path d="M418.265 19.3819L414.876 16L411.494 19.3819C409.317 21.5586 409.212 25.0158 411.17 27.3131C408.865 25.3548 405.408 25.4602 403.239 27.637L399.857 31.0188L403.239 34.4007C405.348 36.5097 408.67 36.6678 410.967 34.8903C409.189 37.1875 409.348 40.5092 411.456 42.6181L414.838 46L418.22 42.6181C420.397 40.4414 420.502 36.9842 418.544 34.6869C420.849 36.6452 424.306 36.5398 426.475 34.363L429.857 30.9812L426.475 27.5993C424.366 25.4903 421.045 25.3322 418.747 27.1097C420.525 24.8125 420.367 21.4908 418.258 19.3819H418.265Z" fill="#F7F6F5"/>
<path d="M414.857 34.5716C414.202 32.9898 412.915 31.7087 411.286 31.0001C412.915 30.2916 414.202 29.0104 414.857 27.4287C415.512 29.0104 416.799 30.2916 418.429 31.0001C416.799 31.7087 415.512 32.9898 414.857 34.5716Z" fill="#C19D60"/>
<path d="M460.286 37C459.186 34.3427 457.024 32.1904 454.286 31C457.024 29.8096 459.186 27.6573 460.286 25C461.386 27.6573 463.548 29.8096 466.286 31C463.548 32.1904 461.386 34.3427 460.286 37Z" fill="white"/>
<path d="M509.123 19.3819L505.733 16L502.351 19.3819C500.175 21.5586 500.069 25.0158 502.027 27.3131C499.723 25.3548 496.265 25.4602 494.096 27.637L490.714 31.0188L494.096 34.4007C496.205 36.5097 499.527 36.6678 501.824 34.8903C500.047 37.1875 500.205 40.5092 502.314 42.6181L505.696 46L509.077 42.6181C511.254 40.4414 511.36 36.9842 509.401 34.6869C511.706 36.6452 515.163 36.5398 517.332 34.363L520.714 30.9812L517.332 27.5993C515.224 25.4903 511.902 25.3322 509.605 27.1097C511.382 24.8125 511.224 21.4908 509.115 19.3819H509.123Z" fill="#F7F6F5"/>
<path d="M505.714 34.5716C505.06 32.9898 503.773 31.7087 502.143 31.0001C503.773 30.2916 505.06 29.0104 505.714 27.4287C506.369 29.0104 507.656 30.2916 509.286 31.0001C507.656 31.7087 506.369 32.9898 505.714 34.5716Z" fill="#C19D60"/>
<path d="M551.143 37C550.043 34.3427 547.881 32.1904 545.143 31C547.881 29.8096 550.043 27.6573 551.143 25C552.243 27.6573 554.405 29.8096 557.143 31C554.405 32.1904 552.243 34.3427 551.143 37Z" fill="white"/>
<path d="M599.98 19.3819L596.59 16L593.208 19.3819C591.032 21.5586 590.926 25.0158 592.885 27.3131C590.58 25.3548 587.123 25.4602 584.953 27.637L581.572 31.0188L584.953 34.4007C587.062 36.5097 590.384 36.6678 592.681 34.8903C590.904 37.1875 591.062 40.5092 593.171 42.6181L596.553 46L599.935 42.6181C602.111 40.4414 602.217 36.9842 600.258 34.6869C602.563 36.6452 606.02 36.5398 608.19 34.363L611.572 30.9812L608.19 27.5993C606.081 25.4903 602.759 25.3322 600.462 27.1097C602.239 24.8125 602.081 21.4908 599.972 19.3819H599.98Z" fill="#F7F6F5"/>
<path d="M596.572 34.5716C595.917 32.9898 594.63 31.7087 593 31.0001C594.63 30.2916 595.917 29.0104 596.572 27.4287C597.227 29.0104 598.513 30.2916 600.143 31.0001C598.513 31.7087 597.227 32.9898 596.572 34.5716Z" fill="#C19D60"/>
<path d="M642 37C640.9 34.3427 638.738 32.1904 636 31C638.738 29.8096 640.9 27.6573 642 25C643.1 27.6573 645.262 29.8096 648 31C645.262 32.1904 643.1 34.3427 642 37Z" fill="white"/>
<path d="M690.837 19.3819L687.448 16L684.066 19.3819C681.889 21.5586 681.783 25.0158 683.742 27.3131C681.437 25.3548 677.98 25.4602 675.811 27.637L672.429 31.0188L675.811 34.4007C677.92 36.5097 681.241 36.6678 683.538 34.8903C681.761 37.1875 681.919 40.5092 684.028 42.6181L687.41 46L690.792 42.6181C692.969 40.4414 693.074 36.9842 691.116 34.6869C693.42 36.6452 696.878 36.5398 699.047 34.363L702.429 30.9812L699.047 27.5993C696.938 25.4903 693.616 25.3322 691.319 27.1097C693.097 24.8125 692.938 21.4908 690.829 19.3819H690.837Z" fill="#F7F6F5"/>
<path d="M687.429 34.5716C686.774 32.9898 685.487 31.7087 683.857 31.0001C685.487 30.2916 686.774 29.0104 687.429 27.4287C688.084 29.0104 689.371 30.2916 691 31.0001C689.371 31.7087 688.084 32.9898 687.429 34.5716Z" fill="#C19D60"/>
<path d="M732.857 37C731.757 34.3427 729.595 32.1904 726.857 31C729.595 29.8096 731.757 27.6573 732.857 25C733.958 27.6573 736.12 29.8096 738.857 31C736.12 32.1904 733.958 34.3427 732.857 37Z" fill="white"/>
<path d="M781.694 19.3819L778.305 16L774.923 19.3819C772.746 21.5586 772.641 25.0158 774.599 27.3131C772.294 25.3548 768.837 25.4602 766.668 27.637L763.286 31.0188L766.668 34.4007C768.777 36.5097 772.098 36.6678 774.396 34.8903C772.618 37.1875 772.776 40.5092 774.885 42.6181L778.267 46L781.649 42.6181C783.826 40.4414 783.931 36.9842 781.973 34.6869C784.278 36.6452 787.735 36.5398 789.904 34.363L793.286 30.9812L789.904 27.5993C787.795 25.4903 784.473 25.3322 782.176 27.1097C783.954 24.8125 783.796 21.4908 781.687 19.3819H781.694Z" fill="#F7F6F5"/>
<path d="M778.286 34.5716C777.631 32.9898 776.344 31.7087 774.715 31.0001C776.344 30.2916 777.631 29.0104 778.286 27.4287C778.941 29.0104 780.228 30.2916 781.857 31.0001C780.228 31.7087 778.941 32.9898 778.286 34.5716Z" fill="#C19D60"/>
<path d="M823.714 37C822.614 34.3427 820.452 32.1904 817.714 31C820.452 29.8096 822.614 27.6573 823.714 25C824.815 27.6573 826.977 29.8096 829.714 31C826.977 32.1904 824.815 34.3427 823.714 37Z" fill="white"/>
<path d="M872.551 19.3819L869.162 16L865.78 19.3819C863.603 21.5586 863.498 25.0158 865.456 27.3131C863.151 25.3548 859.694 25.4602 857.525 27.637L854.143 31.0188L857.525 34.4007C859.634 36.5097 862.956 36.6678 865.253 34.8903C863.475 37.1875 863.633 40.5092 865.742 42.6181L869.124 46L872.506 42.6181C874.683 40.4414 874.788 36.9842 872.83 34.6869C875.135 36.6452 878.592 36.5398 880.761 34.363L884.143 30.9812L880.761 27.5993C878.652 25.4903 875.331 25.3322 873.033 27.1097C874.811 24.8125 874.653 21.4908 872.544 19.3819H872.551Z" fill="#F7F6F5"/>
<path d="M869.143 34.5716C868.488 32.9898 867.201 31.7087 865.572 31.0001C867.201 30.2916 868.488 29.0104 869.143 27.4287C869.798 29.0104 871.085 30.2916 872.715 31.0001C871.085 31.7087 869.798 32.9898 869.143 34.5716Z" fill="#C19D60"/>
<path d="M914.572 37C913.471 34.3427 911.309 32.1904 908.572 31C911.309 29.8096 913.471 27.6573 914.572 25C915.672 27.6573 917.834 29.8096 920.572 31C917.834 32.1904 915.672 34.3427 914.572 37Z" fill="white"/>
<path d="M963.408 19.3819L960.019 16L956.637 19.3819C954.46 21.5586 954.355 25.0158 956.313 27.3131C954.009 25.3548 950.551 25.4602 948.382 27.637L945 31.0188L948.382 34.4007C950.491 36.5097 953.813 36.6678 956.11 34.8903C954.332 37.1875 954.491 40.5092 956.6 42.6181L959.981 46L963.363 42.6181C965.54 40.4414 965.645 36.9842 963.687 34.6869C965.992 36.6452 969.449 36.5398 971.618 34.363L975 30.9812L971.618 27.5993C969.509 25.4903 966.188 25.3322 963.891 27.1097C965.668 24.8125 965.51 21.4908 963.401 19.3819H963.408Z" fill="#F7F6F5"/>
<path d="M960 34.5716C959.345 32.9898 958.059 31.7087 956.429 31.0001C958.059 30.2916 959.345 29.0104 960 27.4287C960.655 29.0104 961.942 30.2916 963.572 31.0001C961.942 31.7087 960.655 32.9898 960 34.5716Z" fill="#C19D60"/>
<path d="M1005.43 37C1004.33 34.3427 1002.17 32.1904 999.429 31C1002.17 29.8096 1004.33 27.6573 1005.43 25C1006.53 27.6573 1008.69 29.8096 1011.43 31C1008.69 32.1904 1006.53 34.3427 1005.43 37Z" fill="white"/>
<path d="M1054.27 19.3819L1050.88 16L1047.49 19.3819C1045.32 21.5586 1045.21 25.0158 1047.17 27.3131C1044.87 25.3548 1041.41 25.4602 1039.24 27.637L1035.86 31.0188L1039.24 34.4007C1041.35 36.5097 1044.67 36.6678 1046.97 34.8903C1045.19 37.1875 1045.35 40.5092 1047.46 42.6181L1050.84 46L1054.22 42.6181C1056.4 40.4414 1056.5 36.9842 1054.54 34.6869C1056.85 36.6452 1060.31 36.5398 1062.48 34.363L1065.86 30.9812L1062.48 27.5993C1060.37 25.4903 1057.04 25.3322 1054.75 27.1097C1056.53 24.8125 1056.37 21.4908 1054.26 19.3819H1054.27Z" fill="#F7F6F5"/>
<path d="M1050.86 34.5716C1050.2 32.9898 1048.92 31.7087 1047.29 31.0001C1048.92 30.2916 1050.2 29.0104 1050.86 27.4287C1051.51 29.0104 1052.8 30.2916 1054.43 31.0001C1052.8 31.7087 1051.51 32.9898 1050.86 34.5716Z" fill="#C19D60"/>
<path d="M1096.29 37C1095.19 34.3427 1093.02 32.1904 1090.29 31C1093.02 29.8096 1095.19 27.6573 1096.29 25C1097.39 27.6573 1099.55 29.8096 1102.29 31C1099.55 32.1904 1097.39 34.3427 1096.29 37Z" fill="white"/>
<path d="M1145.12 19.3819L1141.73 16L1138.35 19.3819C1136.17 21.5586 1136.07 25.0158 1138.03 27.3131C1135.72 25.3548 1132.27 25.4602 1130.1 27.637L1126.71 31.0188L1130.1 34.4007C1132.21 36.5097 1135.53 36.6678 1137.82 34.8903C1136.05 37.1875 1136.2 40.5092 1138.31 42.6181L1141.7 46L1145.08 42.6181C1147.25 40.4414 1147.36 36.9842 1145.4 34.6869C1147.71 36.6452 1151.16 36.5398 1153.33 34.363L1156.71 30.9812L1153.33 27.5993C1151.22 25.4903 1147.9 25.3322 1145.6 27.1097C1147.38 24.8125 1147.22 21.4908 1145.12 19.3819H1145.12Z" fill="#F7F6F5"/>
<path d="M1141.71 34.5716C1141.06 32.9898 1139.77 31.7087 1138.14 31.0001C1139.77 30.2916 1141.06 29.0104 1141.71 27.4287C1142.37 29.0104 1143.66 30.2916 1145.29 31.0001C1143.66 31.7087 1142.37 32.9898 1141.71 34.5716Z" fill="#C19D60"/>
<path d="M1187.14 37C1186.04 34.3427 1183.88 32.1904 1181.14 31C1183.88 29.8096 1186.04 27.6573 1187.14 25C1188.24 27.6573 1190.41 29.8096 1193.14 31C1190.41 32.1904 1188.24 34.3427 1187.14 37Z" fill="white"/>
<path d="M1235.98 19.3819L1232.59 16L1229.21 19.3819C1227.03 21.5586 1226.93 25.0158 1228.88 27.3131C1226.58 25.3548 1223.12 25.4602 1220.95 27.637L1217.57 31.0188L1220.95 34.4007C1223.06 36.5097 1226.38 36.6678 1228.68 34.8903C1226.9 37.1875 1227.06 40.5092 1229.17 42.6181L1232.55 46L1235.93 42.6181C1238.11 40.4414 1238.22 36.9842 1236.26 34.6869C1238.56 36.6452 1242.02 36.5398 1244.19 34.363L1247.57 30.9812L1244.19 27.5993C1242.08 25.4903 1238.76 25.3322 1236.46 27.1097C1238.24 24.8125 1238.08 21.4908 1235.97 19.3819H1235.98Z" fill="#F7F6F5"/>
<path d="M1232.57 34.5716C1231.92 32.9898 1230.63 31.7087 1229 31.0001C1230.63 30.2916 1231.92 29.0104 1232.57 27.4287C1233.23 29.0104 1234.51 30.2916 1236.14 31.0001C1234.51 31.7087 1233.23 32.9898 1232.57 34.5716Z" fill="#C19D60"/>
<path d="M1278 37C1276.9 34.3427 1274.74 32.1904 1272 31C1274.74 29.8096 1276.9 27.6573 1278 25C1279.1 27.6573 1281.26 29.8096 1284 31C1281.26 32.1904 1279.1 34.3427 1278 37Z" fill="white"/>
<path d="M1326.84 19.3819L1323.45 16L1320.07 19.3819C1317.89 21.5586 1317.78 25.0158 1319.74 27.3131C1317.44 25.3548 1313.98 25.4602 1311.81 27.637L1308.43 31.0188L1311.81 34.4007C1313.92 36.5097 1317.24 36.6678 1319.54 34.8903C1317.76 37.1875 1317.92 40.5092 1320.03 42.6181L1323.41 46L1326.79 42.6181C1328.97 40.4414 1329.07 36.9842 1327.12 34.6869C1329.42 36.6452 1332.88 36.5398 1335.05 34.363L1338.43 30.9812L1335.05 27.5993C1332.94 25.4903 1329.62 25.3322 1327.32 27.1097C1329.1 24.8125 1328.94 21.4908 1326.83 19.3819H1326.84Z" fill="#F7F6F5"/>
<path d="M1323.43 34.5716C1322.77 32.9898 1321.49 31.7087 1319.86 31.0001C1321.49 30.2916 1322.77 29.0104 1323.43 27.4287C1324.08 29.0104 1325.37 30.2916 1327 31.0001C1325.37 31.7087 1324.08 32.9898 1323.43 34.5716Z" fill="#C19D60"/>
<path d="M1368.86 37C1367.76 34.3427 1365.6 32.1904 1362.86 31C1365.6 29.8096 1367.76 27.6573 1368.86 25C1369.96 27.6573 1372.12 29.8096 1374.86 31C1372.12 32.1904 1369.96 34.3427 1368.86 37Z" fill="white"/>
<path d="M1417.69 19.3819L1414.3 16L1410.92 19.3819C1408.75 21.5586 1408.64 25.0158 1410.6 27.3131C1408.29 25.3548 1404.84 25.4602 1402.67 27.637L1399.29 31.0188L1402.67 34.4007C1404.78 36.5097 1408.1 36.6678 1410.4 34.8903C1408.62 37.1875 1408.78 40.5092 1410.89 42.6181L1414.27 46L1417.65 42.6181C1419.83 40.4414 1419.93 36.9842 1417.97 34.6869C1420.28 36.6452 1423.74 36.5398 1425.9 34.363L1429.29 30.9812L1425.9 27.5993C1423.8 25.4903 1420.47 25.3322 1418.18 27.1097C1419.95 24.8125 1419.8 21.4908 1417.69 19.3819H1417.69Z" fill="#F7F6F5"/>
<path d="M1414.29 34.5716C1413.63 32.9898 1412.34 31.7087 1410.71 31.0001C1412.34 30.2916 1413.63 29.0104 1414.29 27.4287C1414.94 29.0104 1416.23 30.2916 1417.86 31.0001C1416.23 31.7087 1414.94 32.9898 1414.29 34.5716Z" fill="#C19D60"/>
<path d="M1459.71 37C1458.61 34.3427 1456.45 32.1904 1453.71 31C1456.45 29.8096 1458.61 27.6573 1459.71 25C1460.81 27.6573 1462.98 29.8096 1465.71 31C1462.98 32.1904 1460.81 34.3427 1459.71 37Z" fill="white"/>
<path d="M1508.55 19.3819L1505.16 16L1501.78 19.3819C1499.6 21.5586 1499.5 25.0158 1501.46 27.3131C1499.15 25.3548 1495.69 25.4602 1493.53 27.637L1490.14 31.0188L1493.53 34.4007C1495.63 36.5097 1498.96 36.6678 1501.25 34.8903C1499.48 37.1875 1499.63 40.5092 1501.74 42.6181L1505.12 46L1508.51 42.6181C1510.68 40.4414 1510.79 36.9842 1508.83 34.6869C1511.14 36.6452 1514.59 36.5398 1516.76 34.363L1520.14 30.9812L1516.76 27.5993C1514.65 25.4903 1511.33 25.3322 1509.03 27.1097C1510.81 24.8125 1510.65 21.4908 1508.54 19.3819H1508.55Z" fill="#F7F6F5"/>
<path d="M1505.14 34.5716C1504.49 32.9898 1503.2 31.7087 1501.57 31.0001C1503.2 30.2916 1504.49 29.0104 1505.14 27.4287C1505.8 29.0104 1507.09 30.2916 1508.71 31.0001C1507.09 31.7087 1505.8 32.9898 1505.14 34.5716Z" fill="#C19D60"/>
<path d="M1550.57 37C1549.47 34.3427 1547.31 32.1904 1544.57 31C1547.31 29.8096 1549.47 27.6573 1550.57 25C1551.67 27.6573 1553.83 29.8096 1556.57 31C1553.83 32.1904 1551.67 34.3427 1550.57 37Z" fill="white"/>
<path d="M1599.41 19.3819L1596.02 16L1592.64 19.3819C1590.46 21.5586 1590.36 25.0158 1592.31 27.3131C1590.01 25.3548 1586.55 25.4602 1584.38 27.637L1581 31.0188L1584.38 34.4007C1586.49 36.5097 1589.81 36.6678 1592.11 34.8903C1590.33 37.1875 1590.49 40.5092 1592.6 42.6181L1595.98 46L1599.36 42.6181C1601.54 40.4414 1601.65 36.9842 1599.69 34.6869C1601.99 36.6452 1605.45 36.5398 1607.62 34.363L1611 30.9812L1607.62 27.5993C1605.51 25.4903 1602.19 25.3322 1599.89 27.1097C1601.67 24.8125 1601.51 21.4908 1599.4 19.3819H1599.41Z" fill="#F7F6F5"/>
<path d="M1596 34.5716C1595.35 32.9898 1594.06 31.7087 1592.43 31.0001C1594.06 30.2916 1595.35 29.0104 1596 27.4287C1596.66 29.0104 1597.94 30.2916 1599.57 31.0001C1597.94 31.7087 1596.66 32.9898 1596 34.5716Z" fill="#C19D60"/>
<path d="M1641.43 37C1640.33 34.3427 1638.17 32.1904 1635.43 31C1638.17 29.8096 1640.33 27.6573 1641.43 25C1642.53 27.6573 1644.69 29.8096 1647.43 31C1644.69 32.1904 1642.53 34.3427 1641.43 37Z" fill="white"/>
<path d="M1690.27 19.3819L1686.88 16L1683.49 19.3819C1681.32 21.5586 1681.21 25.0158 1683.17 27.3131C1680.87 25.3548 1677.41 25.4602 1675.24 27.637L1671.86 31.0188L1675.24 34.4007C1677.35 36.5097 1680.67 36.6678 1682.97 34.8903C1681.19 37.1875 1681.35 40.5092 1683.46 42.6181L1686.84 46L1690.22 42.6181C1692.4 40.4414 1692.5 36.9842 1690.54 34.6869C1692.85 36.6452 1696.31 36.5398 1698.48 34.363L1701.86 30.9812L1698.48 27.5993C1696.37 25.4903 1693.05 25.3322 1690.75 27.1097C1692.53 24.8125 1692.37 21.4908 1690.26 19.3819H1690.27Z" fill="#F7F6F5"/>
<path d="M1686.86 34.5716C1686.2 32.9898 1684.92 31.7087 1683.29 31.0001C1684.92 30.2916 1686.2 29.0104 1686.86 27.4287C1687.51 29.0104 1688.8 30.2916 1690.43 31.0001C1688.8 31.7087 1687.51 32.9898 1686.86 34.5716Z" fill="#C19D60"/>
<path d="M1732.29 37C1731.19 34.3427 1729.02 32.1904 1726.29 31C1729.02 29.8096 1731.19 27.6573 1732.29 25C1733.39 27.6573 1735.55 29.8096 1738.29 31C1735.55 32.1904 1733.39 34.3427 1732.29 37Z" fill="white"/>
<path d="M1781.12 19.3819L1777.73 16L1774.35 19.3819C1772.18 21.5586 1772.07 25.0158 1774.03 27.3131C1771.72 25.3548 1768.27 25.4602 1766.1 27.637L1762.71 31.0188L1766.1 34.4007C1768.21 36.5097 1771.53 36.6678 1773.82 34.8903C1772.05 37.1875 1772.21 40.5092 1774.31 42.6181L1777.7 46L1781.08 42.6181C1783.25 40.4414 1783.36 36.9842 1781.4 34.6869C1783.71 36.6452 1787.16 36.5398 1789.33 34.363L1792.71 30.9812L1789.33 27.5993C1787.22 25.4903 1783.9 25.3322 1781.61 27.1097C1783.38 24.8125 1783.22 21.4908 1781.12 19.3819H1781.12Z" fill="#F7F6F5"/>
<path d="M1777.71 34.5716C1777.06 32.9898 1775.77 31.7087 1774.14 31.0001C1775.77 30.2916 1777.06 29.0104 1777.71 27.4287C1778.37 29.0104 1779.66 30.2916 1781.29 31.0001C1779.66 31.7087 1778.37 32.9898 1777.71 34.5716Z" fill="#C19D60"/>
<path d="M1823.14 37C1822.04 34.3427 1819.88 32.1904 1817.14 31C1819.88 29.8096 1822.04 27.6573 1823.14 25C1824.24 27.6573 1826.41 29.8096 1829.14 31C1826.41 32.1904 1824.24 34.3427 1823.14 37Z" fill="white"/>
<path d="M1871.98 19.3819L1868.59 16L1865.21 19.3819C1863.03 21.5586 1862.93 25.0158 1864.89 27.3131C1862.58 25.3548 1859.12 25.4602 1856.95 27.637L1853.57 31.0188L1856.95 34.4007C1859.06 36.5097 1862.38 36.6678 1864.68 34.8903C1862.9 37.1875 1863.06 40.5092 1865.17 42.6181L1868.55 46L1871.94 42.6181C1874.11 40.4414 1874.22 36.9842 1872.26 34.6869C1874.56 36.6452 1878.02 36.5398 1880.19 34.363L1883.57 30.9812L1880.19 27.5993C1878.08 25.4903 1874.76 25.3322 1872.46 27.1097C1874.24 24.8125 1874.08 21.4908 1871.97 19.3819H1871.98Z" fill="#F7F6F5"/>
<path d="M1868.57 34.5716C1867.92 32.9898 1866.63 31.7087 1865 31.0001C1866.63 30.2916 1867.92 29.0104 1868.57 27.4287C1869.23 29.0104 1870.51 30.2916 1872.14 31.0001C1870.51 31.7087 1869.23 32.9898 1868.57 34.5716Z" fill="#C19D60"/>
<path d="M1914 37C1912.9 34.3427 1910.74 32.1904 1908 31C1910.74 29.8096 1912.9 27.6573 1914 25C1915.1 27.6573 1917.26 29.8096 1920 31C1917.26 32.1904 1915.1 34.3427 1914 37Z" fill="white"/>
</svg>
