<svg width="360" height="213" viewBox="0 0 360 213" fill="none" xmlns="http://www.w3.org/2000/svg">
<path d="M201.241 175.282C197.131 164.594 207.319 153.581 207.319 153.581C207.319 153.581 222.382 155.193 226.492 165.881C230.601 176.568 222.012 192.289 222.012 192.289C222.012 192.289 205.35 185.97 201.241 175.282V175.282Z" stroke="#C19D60" stroke-linejoin="round"/>
<path d="M263.609 206.884C265.661 206.223 267.449 205.469 269.641 204.471C287.698 196.319 304.693 164.339 287.135 141.139C281.168 133.242 260.556 99.4207 181.57 120.631C114.919 138.523 83.1227 136.189 57.9091 127.266C36.1104 119.566 16.5918 106.752 -0.000488281 89.8694" stroke="#C19D60" stroke-linejoin="round"/>
<path d="M109.183 133.9C123.19 132.701 134.079 141.482 135.122 150.185C136.291 160.03 125.144 173.292 108.58 172.502L107.374 168.883C107.374 168.883 111.712 168.628 115.216 163.455C129.206 142.896 89.2769 133.9 89.2769 133.9H109.183Z" fill="#C19D60"/>
<path d="M227.415 201.329C259.277 225.667 271.451 203.742 271.451 203.742C271.451 203.742 248.716 208.549 237.67 190.472C225.262 170.106 238.312 162.76 244.909 160.314V157.298C242.392 156.035 238.993 154.699 235.257 154.885C220.777 155.559 213.541 172.377 213.541 172.377C213.541 172.377 203.6 164.958 191.825 167.552C183.469 169.377 179.438 179.752 177.951 185.647L179.157 186.853C183.85 182.868 197.166 178.266 227.415 201.329Z" fill="#C19D60"/>
<path d="M232.405 61.802C232.405 61.802 232.39 56.2166 235.44 50.8723C235.522 50.9552 235.391 50.7838 235.44 50.8723C231.357 44.9814 221.742 45.8926 221.742 45.8926C221.742 45.8926 216.421 54.2938 220.504 60.1847C220.727 60.5018 221.05 60.9913 221.301 61.2713C222.363 61.1524 223.254 60.7399 224.273 60.758C228.675 60.7738 232.405 61.802 232.405 61.802Z" fill="#C19D60"/>
<path d="M232.939 85.7103C239.449 101.666 225.097 113.456 225.097 113.456C225.097 113.456 245.893 116.677 245.606 84.504C245.237 43.0818 262.497 47.1076 262.497 47.1076C262.497 47.1076 248.357 39.226 240.781 45.2981C238.786 46.9237 237.045 48.7645 235.955 50.7266C232.944 56.1411 232.939 61.5836 232.939 61.5836C232.939 61.5836 229.508 60.4034 225.097 60.3772C224.109 60.3508 223.151 60.8941 222.081 60.9804C218.119 61.4022 213.747 62.2761 210.619 65.8058C207.211 69.6795 207 76.6628 207 76.6628C207 76.6628 223.419 62.4244 232.939 85.7103V85.7103Z" stroke="#C19D60" stroke-linecap="round" stroke-linejoin="round"/>
<path d="M339.012 126.662C336.921 132.781 331.35 142.882 317.899 145.963C298.037 150.51 287.654 140.066 286.532 139.932C285.409 139.797 308.169 165.909 329.964 157.423C347.514 150.546 344.669 134.643 342.028 126.662H339.012Z" stroke="#C19D60" stroke-linejoin="round"/>
<path d="M120.042 2.40876C184.676 5.12399 171.96 115.409 85.6579 118.217C53.8096 119.242 22.242 107.801 0 89.8681V82.0269C23.9051 98.1804 63.3808 113.733 105.564 82.0269C128.042 65.1191 127.443 28.8517 92.8966 18.6943C81.3971 15.3011 79.7329 6.82516 79.6257 2.40876L81.4353 -0.00390625C82.1671 2.44416 84.742 5.02869 89.2773 6.02777C98.4321 8.03291 106.498 1.83685 120.042 2.40876Z" fill="#C19D60"/>
</svg>
