<svg width="1920" height="359" viewBox="0 0 1920 359" fill="none" xmlns="http://www.w3.org/2000/svg">
<g filter="url(#filter0_d_236_8500)">
<path d="M333.609 288.791C326.796 271.073 343.686 252.816 343.686 252.816C343.686 252.816 368.657 255.487 375.469 273.205C382.282 290.923 368.043 316.984 368.043 316.984C368.043 316.984 340.422 306.508 333.609 288.791V288.791Z" stroke="#C19D60" stroke-width="2" stroke-linejoin="round"/>
<path d="M437 342.968C440.403 341.873 443.366 340.622 447 338.969C476.935 325.454 505.108 272.439 476 233.979C466.109 220.888 431.94 164.821 301 199.982C190.509 229.642 137.798 225.773 96 210.981C59.8631 198.216 27.506 176.973 0 148.987" stroke="#C19D60" stroke-width="2" stroke-linejoin="round"/>
<path d="M181 221.98C204.22 219.994 222.271 234.55 224 248.977C225.939 265.297 207.459 287.282 180 285.974L178 279.975C178 279.975 185.193 279.551 191 270.975C214.192 236.893 148 221.98 148 221.98H181Z" fill="#C19D60"/>
<path d="M377 331.97C429.82 372.316 450 335.969 450 335.969C450 335.969 412.311 343.938 394 313.972C373.431 280.21 395.065 268.031 406 263.976V258.977C401.829 256.884 396.193 254.669 390 254.977C365.995 256.094 354 283.974 354 283.974C354 283.974 337.521 271.676 318 275.975C304.148 279 297.465 296.201 295 305.972L297 307.972C304.78 301.367 326.854 293.736 377 331.97Z" fill="#C19D60"/>
<path d="M385.116 103.352C385.116 103.352 385.091 94.0931 390.147 85.2336C390.283 85.371 390.066 85.0868 390.147 85.2336C383.38 75.4679 367.44 76.9785 367.44 76.9785C367.44 76.9785 358.619 90.9055 365.387 100.671C365.757 101.197 366.292 102.008 366.708 102.473C368.47 102.276 369.947 101.592 371.635 101.622C378.933 101.648 385.116 103.352 385.116 103.352Z" fill="#C19D60"/>
<path d="M386 142.987C396.793 169.438 373 188.983 373 188.983C373 188.983 407.476 194.323 407 140.988C406.388 72.3196 435 78.9934 435 78.9934C435 78.9934 411.56 65.9277 399 75.9937C395.694 78.6887 392.807 81.7402 391 84.9928C386.009 93.9688 386 102.991 386 102.991C386 102.991 380.312 101.035 373 100.991C371.363 100.947 369.774 101.848 368 101.991C361.432 102.691 354.186 104.139 349 109.99C343.35 116.412 343 127.989 343 127.989C343 127.989 370.218 104.385 386 142.987V142.987Z" stroke="#C19D60" stroke-width="2" stroke-linecap="round" stroke-linejoin="round"/>
<path d="M562 209.981C558.534 220.125 549.297 236.869 527 241.978C494.073 249.515 476.86 232.201 475 231.979C473.14 231.756 510.869 275.043 547 260.976C576.093 249.576 571.378 223.211 567 209.981H562Z" stroke="#C19D60" stroke-width="2" stroke-linejoin="round"/>
<path d="M199 4.0006C306.147 8.50177 285.067 191.327 142 195.982C89.2032 197.681 36.8717 178.715 0 148.987V135.988C39.6288 162.767 105.07 188.549 175 135.988C212.263 107.959 211.269 47.8365 154 30.998C134.937 25.3729 132.178 11.3219 132 4.0006L135 0.000976562C136.213 4.05927 140.482 8.3438 148 10C163.176 13.3241 176.547 3.05251 199 4.0006Z" fill="#C19D60"/>
<path d="M1586.39 288.791C1593.2 271.073 1576.32 252.816 1576.32 252.816C1576.32 252.816 1551.34 255.488 1544.53 273.206C1537.72 290.924 1551.96 316.984 1551.96 316.984C1551.96 316.984 1579.58 306.509 1586.39 288.791V288.791Z" stroke="#C19D60" stroke-width="2" stroke-linejoin="round"/>
<path d="M1483 342.969C1479.6 341.873 1476.63 340.623 1473 338.969C1443.07 325.455 1414.89 272.439 1444 233.979C1453.89 220.888 1488.06 164.821 1619 199.982C1729.49 229.642 1782.2 225.773 1824 210.981C1860.14 198.217 1892.49 176.974 1920 148.987" stroke="#C19D60" stroke-width="2" stroke-linejoin="round"/>
<path d="M1739 221.981C1715.78 219.994 1697.73 234.551 1696 248.978C1694.06 265.298 1712.54 287.283 1740 285.974L1742 279.975C1742 279.975 1734.81 279.552 1729 270.976C1705.81 236.894 1772 221.981 1772 221.981H1739Z" fill="#C19D60"/>
<path d="M1543 331.97C1490.18 372.317 1470 335.97 1470 335.97C1470 335.97 1507.69 343.939 1526 313.972C1546.57 280.21 1524.93 268.032 1514 263.977V258.977C1518.17 256.884 1523.81 254.669 1530 254.978C1554 256.094 1566 283.975 1566 283.975C1566 283.975 1582.48 271.677 1602 275.976C1615.85 279.001 1622.53 296.202 1625 305.973L1623 307.973C1615.22 301.367 1593.15 293.737 1543 331.97Z" fill="#C19D60"/>
<path d="M1534.88 103.353C1534.88 103.353 1534.91 94.0936 1529.85 85.2341C1529.72 85.3715 1529.93 85.0873 1529.85 85.2341C1536.62 75.4684 1552.56 76.979 1552.56 76.979C1552.56 76.979 1561.38 90.906 1554.61 100.672C1554.24 101.197 1553.71 102.009 1553.29 102.473C1551.53 102.276 1550.05 101.592 1548.37 101.622C1541.07 101.648 1534.88 103.353 1534.88 103.353Z" fill="#C19D60"/>
<path d="M1534 142.988C1523.21 169.438 1547 188.983 1547 188.983C1547 188.983 1512.52 194.324 1513 140.988C1513.61 72.3201 1485 78.9939 1485 78.9939C1485 78.9939 1508.44 65.9282 1521 75.9942C1524.31 78.6892 1527.19 81.7407 1529 84.9933C1533.99 93.9693 1534 102.992 1534 102.992C1534 102.992 1539.69 101.035 1547 100.992C1548.64 100.948 1550.23 101.849 1552 101.992C1558.57 102.691 1565.81 104.14 1571 109.991C1576.65 116.413 1577 127.989 1577 127.989C1577 127.989 1549.78 104.385 1534 142.988V142.988Z" stroke="#C19D60" stroke-width="2" stroke-linecap="round" stroke-linejoin="round"/>
<path d="M1358 209.981C1361.47 220.125 1370.7 236.87 1393 241.978C1425.93 249.516 1443.14 232.202 1445 231.979C1446.86 231.757 1409.13 275.044 1373 260.977C1343.91 249.576 1348.62 223.212 1353 209.981H1358Z" stroke="#C19D60" stroke-width="2" stroke-linejoin="round"/>
<path d="M1721 4.00109C1613.85 8.50226 1634.93 191.328 1778 195.983C1830.8 197.681 1883.13 178.716 1920 148.987V135.989C1880.37 162.767 1814.93 188.549 1745 135.989C1707.74 107.96 1708.73 47.837 1766 30.9985C1785.06 25.3734 1787.82 11.3224 1788 4.00109L1785 0.00146484C1783.79 4.05976 1779.52 8.34429 1772 10.0005C1756.82 13.3246 1743.45 3.05299 1721 4.00109Z" fill="#C19D60"/>
<path d="M996.343 52.3389L960 15.9995L923.657 52.3389C900.584 75.4103 899.87 111.268 920.629 135.617C896.198 114.86 860.337 115.574 837.343 138.645L801 174.984L837.343 211.324C859.698 233.677 894.763 234.707 919.114 215.866C900.272 240.215 901.302 275.277 923.657 297.63L960 333.969L996.343 297.63C1019.42 274.559 1020.13 238.701 999.371 214.352C1023.8 235.108 1059.66 234.395 1082.66 211.324L1119 174.984L1082.66 138.645C1060.3 116.292 1025.24 115.262 1000.89 134.103C1019.73 109.754 1018.7 74.6918 996.343 52.3389Z" fill="#F7F6F5"/>
<path d="M996.343 52.3389L960 15.9995L923.657 52.3389C900.584 75.4103 899.87 111.268 920.629 135.617C896.198 114.86 860.337 115.574 837.343 138.645L801 174.984L837.343 211.324C859.698 233.677 894.763 234.707 919.114 215.866C900.272 240.215 901.302 275.277 923.657 297.63L960 333.969L996.343 297.63C1019.42 274.559 1020.13 238.701 999.371 214.352C1023.8 235.108 1059.66 234.395 1082.66 211.324L1119 174.984L1082.66 138.645C1060.3 116.292 1025.24 115.262 1000.89 134.103C1019.73 109.754 1018.7 74.6918 996.343 52.3389Z" stroke="#C19D60" stroke-width="2" stroke-miterlimit="10" stroke-linejoin="round"/>
<path d="M960 212.838C953.058 196.074 939.417 182.495 922.143 174.985C939.417 167.475 953.058 153.896 960 137.131C966.942 153.896 980.583 167.475 997.857 174.985C980.583 182.495 966.942 196.074 960 212.838Z" fill="#C19D60"/>
</g>
<defs>
<filter id="filter0_d_236_8500" x="-4.7132" y="0.000976562" width="1929.43" height="359" filterUnits="userSpaceOnUse" color-interpolation-filters="sRGB">
<feFlood flood-opacity="0" result="BackgroundImageFix"/>
<feColorMatrix in="SourceAlpha" type="matrix" values="0 0 0 0 0 0 0 0 0 0 0 0 0 0 0 0 0 0 127 0" result="hardAlpha"/>
<feOffset dy="4"/>
<feGaussianBlur stdDeviation="2"/>
<feComposite in2="hardAlpha" operator="out"/>
<feColorMatrix type="matrix" values="0 0 0 0 0 0 0 0 0 0 0 0 0 0 0 0 0 0 0.25 0"/>
<feBlend mode="normal" in2="BackgroundImageFix" result="effect1_dropShadow_236_8500"/>
<feBlend mode="normal" in="SourceGraphic" in2="effect1_dropShadow_236_8500" result="shape"/>
</filter>
</defs>
</svg>
