<svg width="1920" height="351" viewBox="0 0 1920 351" fill="none" xmlns="http://www.w3.org/2000/svg">
<path d="M333.608 288.789C326.795 271.071 343.685 252.814 343.685 252.814C343.685 252.814 368.656 255.486 375.468 273.204C382.281 290.922 368.042 316.982 368.042 316.982C368.042 316.982 340.421 306.507 333.608 288.789V288.789Z" stroke="#C19D60" stroke-width="2" stroke-linejoin="round"/>
<path d="M436.999 342.967C440.402 341.871 443.365 340.621 446.999 338.967C476.934 325.453 505.107 272.437 475.999 233.977C466.108 220.887 431.939 164.819 300.999 199.981C190.508 229.64 137.797 225.771 95.999 210.979C59.8622 198.215 27.505 176.972 -0.000976562 148.985" stroke="#C19D60" stroke-width="2" stroke-linejoin="round"/>
<path d="M180.999 221.979C204.219 219.992 222.27 234.549 223.999 248.976C225.938 265.296 207.458 287.281 179.999 285.973L177.999 279.973C177.999 279.973 185.192 279.55 190.999 270.974C214.191 236.892 147.999 221.979 147.999 221.979H180.999Z" fill="#C19D60"/>
<path d="M376.999 331.969C429.819 372.315 449.999 335.969 449.999 335.969C449.999 335.969 412.31 343.938 393.999 313.971C373.43 280.209 395.064 268.03 405.999 263.975V258.976C401.828 256.883 396.192 254.668 389.999 254.976C365.994 256.093 353.999 283.973 353.999 283.973C353.999 283.973 337.52 271.675 317.999 275.974C304.147 278.999 297.464 296.2 294.999 305.971L296.999 307.971C304.779 301.366 326.853 293.735 376.999 331.969Z" fill="#C19D60"/>
<path d="M385.115 103.351C385.115 103.351 385.09 94.0921 390.146 85.2326C390.282 85.37 390.065 85.0858 390.146 85.2326C383.379 75.4669 367.439 76.9775 367.439 76.9775C367.439 76.9775 358.618 90.9046 365.386 100.67C365.756 101.196 366.291 102.007 366.707 102.472C368.469 102.275 369.946 101.591 371.634 101.621C378.932 101.647 385.115 103.351 385.115 103.351Z" fill="#C19D60"/>
<path d="M385.999 142.986C396.792 169.436 372.999 188.982 372.999 188.982C372.999 188.982 407.475 194.322 406.999 140.986C406.387 72.3181 434.999 78.992 434.999 78.992C434.999 78.992 411.559 65.9262 398.999 75.9922C395.693 78.6872 392.806 81.7387 390.999 84.9914C386.008 93.9673 385.999 102.99 385.999 102.99C385.999 102.99 380.311 101.033 372.999 100.99C371.362 100.946 369.773 101.847 367.999 101.99C361.431 102.689 354.185 104.138 348.999 109.989C343.349 116.411 342.999 127.987 342.999 127.987C342.999 127.987 370.217 104.384 385.999 142.986V142.986Z" stroke="#C19D60" stroke-width="2" stroke-linecap="round" stroke-linejoin="round"/>
<path d="M561.999 209.979C558.533 220.123 549.297 236.868 526.999 241.976C494.072 249.514 476.859 232.2 474.999 231.977C473.139 231.755 510.868 275.042 546.999 260.975C576.092 249.574 571.377 223.21 566.999 209.979H561.999Z" stroke="#C19D60" stroke-width="2" stroke-linejoin="round"/>
<path d="M198.999 3.99864C306.146 8.49982 285.066 191.325 141.999 195.98C89.2022 197.679 36.8708 178.713 -0.000976562 148.985V135.986C39.6278 162.765 105.069 188.547 174.999 135.986C212.262 107.957 211.268 47.8346 153.999 30.9961C134.936 25.3709 132.177 11.32 131.999 3.99864L134.999 -0.000976562C136.212 4.05732 140.481 8.34184 147.999 9.99808C163.175 13.3221 176.546 3.05055 198.999 3.99864Z" fill="#C19D60"/>
<path d="M1586.39 288.791C1593.21 271.073 1576.32 252.816 1576.32 252.816C1576.32 252.816 1551.35 255.488 1544.53 273.206C1537.72 290.924 1551.96 316.984 1551.96 316.984C1551.96 316.984 1579.58 306.509 1586.39 288.791V288.791Z" stroke="#C19D60" stroke-width="2" stroke-linejoin="round"/>
<path d="M1483 342.969C1479.6 341.873 1476.64 340.623 1473 338.969C1443.07 325.455 1414.89 272.439 1444 233.979C1453.89 220.888 1488.06 164.821 1619 199.982C1729.49 229.642 1782.2 225.773 1824 210.981C1860.14 198.217 1892.5 176.974 1920 148.987" stroke="#C19D60" stroke-width="2" stroke-linejoin="round"/>
<path d="M1739 221.981C1715.78 219.994 1697.73 234.551 1696 248.978C1694.06 265.298 1712.54 287.283 1740 285.974L1742 279.975C1742 279.975 1734.81 279.552 1729 270.976C1705.81 236.894 1772 221.981 1772 221.981H1739Z" fill="#C19D60"/>
<path d="M1543 331.971C1490.18 372.317 1470 335.97 1470 335.97C1470 335.97 1507.69 343.939 1526 313.973C1546.57 280.211 1524.94 268.032 1514 263.977V258.978C1518.17 256.885 1523.81 254.67 1530 254.978C1554.01 256.095 1566 283.975 1566 283.975C1566 283.975 1582.48 271.677 1602 275.976C1615.85 279.001 1622.54 296.202 1625 305.973L1623 307.973C1615.22 301.368 1593.15 293.737 1543 331.971Z" fill="#C19D60"/>
<path d="M1534.89 103.353C1534.89 103.353 1534.91 94.0941 1529.85 85.2346C1529.72 85.372 1529.94 85.0878 1529.85 85.2346C1536.62 75.4689 1552.56 76.9794 1552.56 76.9794C1552.56 76.9794 1561.38 90.9065 1554.62 100.672C1554.25 101.198 1553.71 102.009 1553.29 102.474C1551.53 102.276 1550.06 101.593 1548.37 101.623C1541.07 101.649 1534.89 103.353 1534.89 103.353Z" fill="#C19D60"/>
<path d="M1534 142.988C1523.21 169.438 1547 188.983 1547 188.983C1547 188.983 1512.53 194.324 1513 140.988C1513.61 72.3201 1485 78.9939 1485 78.9939C1485 78.9939 1508.44 65.9282 1521 75.9942C1524.31 78.6892 1527.2 81.7407 1529 84.9933C1533.99 93.9693 1534 102.992 1534 102.992C1534 102.992 1539.69 101.035 1547 100.992C1548.64 100.948 1550.23 101.849 1552 101.992C1558.57 102.691 1565.82 104.14 1571 109.991C1576.65 116.413 1577 127.989 1577 127.989C1577 127.989 1549.78 104.385 1534 142.988V142.988Z" stroke="#C19D60" stroke-width="2" stroke-linecap="round" stroke-linejoin="round"/>
<path d="M1358 209.981C1361.47 220.125 1370.7 236.87 1393 241.978C1425.93 249.516 1443.14 232.202 1445 231.979C1446.86 231.757 1409.13 275.044 1373 260.977C1343.91 249.576 1348.62 223.212 1353 209.981H1358Z" stroke="#C19D60" stroke-width="2" stroke-linejoin="round"/>
<path d="M1721 4.0006C1613.85 8.50177 1634.93 191.327 1778 195.982C1830.8 197.681 1883.13 178.715 1920 148.987V135.988C1880.37 162.767 1814.93 188.549 1745 135.988C1707.74 107.959 1708.73 47.8365 1766 30.998C1785.07 25.3729 1787.82 11.3219 1788 4.0006L1785 0.000976562C1783.79 4.05927 1779.52 8.3438 1772 10C1756.83 13.3241 1743.45 3.05251 1721 4.0006Z" fill="#C19D60"/>
<path d="M996.343 52.3384L960 15.999L923.657 52.3384C900.584 75.4098 899.87 111.268 920.629 135.616C896.198 114.86 860.337 115.573 837.343 138.645L801 174.984L837.343 211.323C859.698 233.676 894.763 234.706 919.114 215.866C900.272 240.214 901.302 275.277 923.657 297.629L960 333.969L996.343 297.629C1019.42 274.558 1020.13 238.7 999.371 214.352C1023.8 235.108 1059.66 234.395 1082.66 211.323L1119 174.984L1082.66 138.645C1060.3 116.292 1025.24 115.262 1000.89 134.102C1019.73 109.753 1018.7 74.6913 996.343 52.3384Z" fill="#F7F6F5"/>
<path d="M996.343 52.3384L960 15.999L923.657 52.3384C900.584 75.4098 899.87 111.268 920.629 135.616C896.198 114.86 860.337 115.573 837.343 138.645L801 174.984L837.343 211.323C859.698 233.676 894.763 234.706 919.114 215.866C900.272 240.214 901.302 275.277 923.657 297.629L960 333.969L996.343 297.629C1019.42 274.558 1020.13 238.7 999.371 214.352C1023.8 235.108 1059.66 234.395 1082.66 211.323L1119 174.984L1082.66 138.645C1060.3 116.292 1025.24 115.262 1000.89 134.102C1019.73 109.753 1018.7 74.6913 996.343 52.3384Z" stroke="#C19D60" stroke-width="2" stroke-miterlimit="10" stroke-linejoin="round"/>
<path d="M960 212.838C953.058 196.073 939.416 182.494 922.143 174.984C939.416 167.474 953.058 153.896 960 137.131C966.942 153.896 980.583 167.474 997.857 174.984C980.583 182.494 966.942 196.073 960 212.838Z" fill="#C19D60"/>
</svg>
