<svg width="1920" height="62" viewBox="0 0 1920 62" fill="none" xmlns="http://www.w3.org/2000/svg">
<rect width="1921" height="62" fill="#C19D60"/>
<path d="M6 37C4.89979 34.3427 2.73774 32.1904 0 31C2.73774 29.8096 4.89979 27.6573 6 25C7.10021 27.6573 9.26226 29.8096 12 31C9.26226 32.1904 7.10021 34.3427 6 37Z" fill="white"/>
<path d="M54.8606 19.3819L51.4712 16L48.0893 19.3819C45.9126 21.5586 45.8071 25.0158 47.7655 27.3131C45.4607 25.3548 42.0035 25.4602 39.8343 27.637L36.4524 31.0188L39.8343 34.4007C41.9432 36.5097 45.2648 36.6678 47.5621 34.8903C45.7846 37.1875 45.9427 40.5092 48.0517 42.6181L51.4336 46L54.8154 42.6181C56.9922 40.4414 57.0976 36.9842 55.1393 34.6869C57.4441 36.6452 60.9013 36.5398 63.0705 34.363L66.4524 30.9812L63.0705 27.5993C60.9616 25.4903 57.6399 25.3322 55.3427 27.1097C57.1202 24.8125 56.9621 21.4908 54.8531 19.3819H54.8606Z" fill="#F7F6F5" stroke="#C19D60" stroke-width="2" stroke-miterlimit="10" stroke-linejoin="round"/>
<path d="M51.4525 34.5716C50.7976 32.9898 49.5107 31.7087 47.8811 31.0001C49.5107 30.2916 50.7976 29.0104 51.4525 27.4287C52.1074 29.0104 53.3944 30.2916 55.024 31.0001C53.3944 31.7087 52.1074 32.9898 51.4525 34.5716Z" fill="#C19D60"/>
<path d="M96.9048 37C95.8045 34.3427 93.6425 32.1904 90.9048 31C93.6425 29.8096 95.8045 27.6573 96.9048 25C98.005 27.6573 100.167 29.8096 102.905 31C100.167 32.1904 98.005 34.3427 96.9048 37Z" fill="white"/>
<path d="M145.765 19.3819L142.376 16L138.994 19.3819C136.817 21.5586 136.712 25.0158 138.67 27.3131C136.365 25.3548 132.908 25.4602 130.739 27.637L127.357 31.0188L130.739 34.4007C132.848 36.5097 136.17 36.6678 138.467 34.8903C136.689 37.1875 136.847 40.5092 138.956 42.6181L142.338 46L145.72 42.6181C147.897 40.4414 148.002 36.9842 146.044 34.6869C148.349 36.6452 151.806 36.5398 153.975 34.363L157.357 30.9812L153.975 27.5993C151.866 25.4903 148.545 25.3322 146.247 27.1097C148.025 24.8125 147.867 21.4908 145.758 19.3819H145.765Z" fill="#F7F6F5" stroke="#C19D60" stroke-width="2" stroke-miterlimit="10" stroke-linejoin="round"/>
<path d="M142.357 34.5716C141.702 32.9898 140.415 31.7087 138.786 31.0001C140.415 30.2916 141.702 29.0104 142.357 27.4287C143.012 29.0104 144.299 30.2916 145.929 31.0001C144.299 31.7087 143.012 32.9898 142.357 34.5716Z" fill="#C19D60"/>
<path d="M187.81 37C186.709 34.3427 184.547 32.1904 181.81 31C184.547 29.8096 186.709 27.6573 187.81 25C188.91 27.6573 191.072 29.8096 193.81 31C191.072 32.1904 188.91 34.3427 187.81 37Z" fill="white"/>
<path d="M236.67 19.3819L233.281 16L229.899 19.3819C227.722 21.5586 227.617 25.0158 229.575 27.3131C227.27 25.3548 223.813 25.4602 221.644 27.637L218.262 31.0188L221.644 34.4007C223.753 36.5097 227.074 36.6678 229.372 34.8903C227.594 37.1875 227.752 40.5092 229.861 42.6181L233.243 46L236.625 42.6181C238.802 40.4414 238.907 36.9842 236.949 34.6869C239.254 36.6452 242.711 36.5398 244.88 34.363L248.262 30.9812L244.88 27.5993C242.771 25.4903 239.449 25.3322 237.152 27.1097C238.93 24.8125 238.772 21.4908 236.663 19.3819H236.67Z" fill="#F7F6F5" stroke="#C19D60" stroke-width="2" stroke-miterlimit="10" stroke-linejoin="round"/>
<path d="M233.262 34.5716C232.607 32.9898 231.32 31.7087 229.691 31.0001C231.32 30.2916 232.607 29.0104 233.262 27.4287C233.917 29.0104 235.204 30.2916 236.833 31.0001C235.204 31.7087 233.917 32.9898 233.262 34.5716Z" fill="#C19D60"/>
<path d="M278.714 37C277.614 34.3427 275.452 32.1904 272.714 31C275.452 29.8096 277.614 27.6573 278.714 25C279.815 27.6573 281.977 29.8096 284.714 31C281.977 32.1904 279.815 34.3427 278.714 37Z" fill="white"/>
<path d="M327.575 19.3819L324.186 16L320.804 19.3819C318.627 21.5586 318.521 25.0158 320.48 27.3131C318.175 25.3548 314.718 25.4602 312.549 27.637L309.167 31.0188L312.549 34.4007C314.658 36.5097 317.979 36.6678 320.276 34.8903C318.499 37.1875 318.657 40.5092 320.766 42.6181L324.148 46L327.53 42.6181C329.706 40.4414 329.812 36.9842 327.854 34.6869C330.158 36.6452 333.616 36.5398 335.785 34.363L339.167 30.9812L335.785 27.5993C333.676 25.4903 330.354 25.3322 328.057 27.1097C329.835 24.8125 329.676 21.4908 327.567 19.3819H327.575Z" fill="#F7F6F5" stroke="#C19D60" stroke-width="2" stroke-miterlimit="10" stroke-linejoin="round"/>
<path d="M324.167 34.5716C323.512 32.9898 322.225 31.7087 320.595 31.0001C322.225 30.2916 323.512 29.0104 324.167 27.4287C324.822 29.0104 326.109 30.2916 327.738 31.0001C326.109 31.7087 324.822 32.9898 324.167 34.5716Z" fill="#C19D60"/>
<path d="M369.619 37C368.519 34.3427 366.357 32.1904 363.619 31C366.357 29.8096 368.519 27.6573 369.619 25C370.719 27.6573 372.881 29.8096 375.619 31C372.881 32.1904 370.719 34.3427 369.619 37Z" fill="white"/>
<path d="M418.48 19.3819L415.09 16L411.708 19.3819C409.532 21.5586 409.426 25.0158 411.385 27.3131C409.08 25.3548 405.623 25.4602 403.453 27.637L400.071 31.0188L403.453 34.4007C405.562 36.5097 408.884 36.6678 411.181 34.8903C409.404 37.1875 409.562 40.5092 411.671 42.6181L415.053 46L418.435 42.6181C420.611 40.4414 420.717 36.9842 418.758 34.6869C421.063 36.6452 424.52 36.5398 426.69 34.363L430.071 30.9812L426.69 27.5993C424.581 25.4903 421.259 25.3322 418.962 27.1097C420.739 24.8125 420.581 21.4908 418.472 19.3819H418.48Z" fill="#F7F6F5" stroke="#C19D60" stroke-width="2" stroke-miterlimit="10" stroke-linejoin="round"/>
<path d="M415.072 34.5716C414.417 32.9898 413.13 31.7087 411.5 31.0001C413.13 30.2916 414.417 29.0104 415.072 27.4287C415.727 29.0104 417.013 30.2916 418.643 31.0001C417.013 31.7087 415.727 32.9898 415.072 34.5716Z" fill="#C19D60"/>
<path d="M460.524 37C459.424 34.3427 457.262 32.1904 454.524 31C457.262 29.8096 459.424 27.6573 460.524 25C461.624 27.6573 463.786 29.8096 466.524 31C463.786 32.1904 461.624 34.3427 460.524 37Z" fill="white"/>
<path d="M509.384 19.3819L505.995 16L502.613 19.3819C500.436 21.5586 500.331 25.0158 502.289 27.3131C499.985 25.3548 496.527 25.4602 494.358 27.637L490.976 31.0188L494.358 34.4007C496.467 36.5097 499.789 36.6678 502.086 34.8903C500.308 37.1875 500.467 40.5092 502.576 42.6181L505.957 46L509.339 42.6181C511.516 40.4414 511.622 36.9842 509.663 34.6869C511.968 36.6452 515.425 36.5398 517.594 34.363L520.976 30.9812L517.594 27.5993C515.485 25.4903 512.164 25.3322 509.867 27.1097C511.644 24.8125 511.486 21.4908 509.377 19.3819H509.384Z" fill="#F7F6F5" stroke="#C19D60" stroke-width="2" stroke-miterlimit="10" stroke-linejoin="round"/>
<path d="M505.976 34.5716C505.322 32.9898 504.035 31.7087 502.405 31.0001C504.035 30.2916 505.322 29.0104 505.976 27.4287C506.631 29.0104 507.918 30.2916 509.548 31.0001C507.918 31.7087 506.631 32.9898 505.976 34.5716Z" fill="#C19D60"/>
<path d="M551.429 37C550.328 34.3427 548.166 32.1904 545.429 31C548.166 29.8096 550.328 27.6573 551.429 25C552.529 27.6573 554.691 29.8096 557.429 31C554.691 32.1904 552.529 34.3427 551.429 37Z" fill="white"/>
<path d="M600.289 19.3819L596.9 16L593.518 19.3819C591.341 21.5586 591.236 25.0158 593.194 27.3131C590.889 25.3548 587.432 25.4602 585.263 27.637L581.881 31.0188L585.263 34.4007C587.372 36.5097 590.693 36.6678 592.991 34.8903C591.213 37.1875 591.371 40.5092 593.48 42.6181L596.862 46L600.244 42.6181C602.421 40.4414 602.526 36.9842 600.568 34.6869C602.873 36.6452 606.33 36.5398 608.499 34.363L611.881 30.9812L608.499 27.5993C606.39 25.4903 603.069 25.3322 600.771 27.1097C602.549 24.8125 602.391 21.4908 600.282 19.3819H600.289Z" fill="#F7F6F5" stroke="#C19D60" stroke-width="2" stroke-miterlimit="10" stroke-linejoin="round"/>
<path d="M596.881 34.5716C596.226 32.9898 594.939 31.7087 593.31 31.0001C594.939 30.2916 596.226 29.0104 596.881 27.4287C597.536 29.0104 598.823 30.2916 600.453 31.0001C598.823 31.7087 597.536 32.9898 596.881 34.5716Z" fill="#C19D60"/>
<path d="M642.333 37C641.233 34.3427 639.071 32.1904 636.333 31C639.071 29.8096 641.233 27.6573 642.333 25C643.434 27.6573 645.596 29.8096 648.333 31C645.596 32.1904 643.434 34.3427 642.333 37Z" fill="white"/>
<path d="M691.194 19.3819L687.805 16L684.423 19.3819C682.246 21.5586 682.141 25.0158 684.099 27.3131C681.794 25.3548 678.337 25.4602 676.168 27.637L672.786 31.0188L676.168 34.4007C678.277 36.5097 681.598 36.6678 683.896 34.8903C682.118 37.1875 682.276 40.5092 684.385 42.6181L687.767 46L691.149 42.6181C693.326 40.4414 693.431 36.9842 691.473 34.6869C693.778 36.6452 697.235 36.5398 699.404 34.363L702.786 30.9812L699.404 27.5993C697.295 25.4903 693.973 25.3322 691.676 27.1097C693.454 24.8125 693.295 21.4908 691.187 19.3819H691.194Z" fill="#F7F6F5" stroke="#C19D60" stroke-width="2" stroke-miterlimit="10" stroke-linejoin="round"/>
<path d="M687.786 34.5716C687.131 32.9898 685.844 31.7087 684.215 31.0001C685.844 30.2916 687.131 29.0104 687.786 27.4287C688.441 29.0104 689.728 30.2916 691.357 31.0001C689.728 31.7087 688.441 32.9898 687.786 34.5716Z" fill="#C19D60"/>
<path d="M733.238 37C732.138 34.3427 729.976 32.1904 727.238 31C729.976 29.8096 732.138 27.6573 733.238 25C734.338 27.6573 736.501 29.8096 739.238 31C736.501 32.1904 734.338 34.3427 733.238 37Z" fill="white"/>
<path d="M782.099 19.3819L778.71 16L775.328 19.3819C773.151 21.5586 773.045 25.0158 775.004 27.3131C772.699 25.3548 769.242 25.4602 767.073 27.637L763.691 31.0188L767.073 34.4007C769.182 36.5097 772.503 36.6678 774.8 34.8903C773.023 37.1875 773.181 40.5092 775.29 42.6181L778.672 46L782.054 42.6181C784.23 40.4414 784.336 36.9842 782.378 34.6869C784.682 36.6452 788.14 36.5398 790.309 34.363L793.691 30.9812L790.309 27.5993C788.2 25.4903 784.878 25.3322 782.581 27.1097C784.359 24.8125 784.2 21.4908 782.091 19.3819H782.099Z" fill="#F7F6F5" stroke="#C19D60" stroke-width="2" stroke-miterlimit="10" stroke-linejoin="round"/>
<path d="M778.691 34.5716C778.036 32.9898 776.749 31.7087 775.119 31.0001C776.749 30.2916 778.036 29.0104 778.691 27.4287C779.346 29.0104 780.633 30.2916 782.262 31.0001C780.633 31.7087 779.346 32.9898 778.691 34.5716Z" fill="#C19D60"/>
<path d="M824.143 37C823.043 34.3427 820.881 32.1904 818.143 31C820.881 29.8096 823.043 27.6573 824.143 25C825.243 27.6573 827.405 29.8096 830.143 31C827.405 32.1904 825.243 34.3427 824.143 37Z" fill="white"/>
<path d="M873.004 19.3819L869.614 16L866.232 19.3819C864.056 21.5586 863.95 25.0158 865.909 27.3131C863.604 25.3548 860.147 25.4602 857.977 27.637L854.595 31.0188L857.977 34.4007C860.086 36.5097 863.408 36.6678 865.705 34.8903C863.928 37.1875 864.086 40.5092 866.195 42.6181L869.577 46L872.959 42.6181C875.135 40.4414 875.241 36.9842 873.282 34.6869C875.587 36.6452 879.044 36.5398 881.214 34.363L884.595 30.9812L881.214 27.5993C879.105 25.4903 875.783 25.3322 873.486 27.1097C875.263 24.8125 875.105 21.4908 872.996 19.3819H873.004Z" fill="#F7F6F5" stroke="#C19D60" stroke-width="2" stroke-miterlimit="10" stroke-linejoin="round"/>
<path d="M869.596 34.5716C868.941 32.9898 867.654 31.7087 866.024 31.0001C867.654 30.2916 868.941 29.0104 869.596 27.4287C870.25 29.0104 871.537 30.2916 873.167 31.0001C871.537 31.7087 870.25 32.9898 869.596 34.5716Z" fill="#C19D60"/>
<path d="M915.048 37C913.948 34.3427 911.786 32.1904 909.048 31C911.786 29.8096 913.948 27.6573 915.048 25C916.148 27.6573 918.31 29.8096 921.048 31C918.31 32.1904 916.148 34.3427 915.048 37Z" fill="white"/>
<path d="M963.908 19.3819L960.519 16L957.137 19.3819C954.96 21.5586 954.855 25.0158 956.813 27.3131C954.509 25.3548 951.051 25.4602 948.882 27.637L945.5 31.0188L948.882 34.4007C950.991 36.5097 954.313 36.6678 956.61 34.8903C954.832 37.1875 954.991 40.5092 957.1 42.6181L960.481 46L963.863 42.6181C966.04 40.4414 966.145 36.9842 964.187 34.6869C966.492 36.6452 969.949 36.5398 972.118 34.363L975.5 30.9812L972.118 27.5993C970.009 25.4903 966.688 25.3322 964.391 27.1097C966.168 24.8125 966.01 21.4908 963.901 19.3819H963.908Z" fill="#F7F6F5" stroke="#C19D60" stroke-width="2" stroke-miterlimit="10" stroke-linejoin="round"/>
<path d="M960.5 34.5716C959.845 32.9898 958.559 31.7087 956.929 31.0001C958.559 30.2916 959.845 29.0104 960.5 27.4287C961.155 29.0104 962.442 30.2916 964.072 31.0001C962.442 31.7087 961.155 32.9898 960.5 34.5716Z" fill="#C19D60"/>
<path d="M1005.95 37C1004.85 34.3427 1002.69 32.1904 999.953 31C1002.69 29.8096 1004.85 27.6573 1005.95 25C1007.05 27.6573 1009.21 29.8096 1011.95 31C1009.21 32.1904 1007.05 34.3427 1005.95 37Z" fill="white"/>
<path d="M1054.81 19.3819L1051.42 16L1048.04 19.3819C1045.87 21.5586 1045.76 25.0158 1047.72 27.3131C1045.41 25.3548 1041.96 25.4602 1039.79 27.637L1036.4 31.0188L1039.79 34.4007C1041.9 36.5097 1045.22 36.6678 1047.51 34.8903C1045.74 37.1875 1045.9 40.5092 1048 42.6181L1051.39 46L1054.77 42.6181C1056.94 40.4414 1057.05 36.9842 1055.09 34.6869C1057.4 36.6452 1060.85 36.5398 1063.02 34.363L1066.4 30.9812L1063.02 27.5993C1060.91 25.4903 1057.59 25.3322 1055.3 27.1097C1057.07 24.8125 1056.91 21.4908 1054.81 19.3819H1054.81Z" fill="#F7F6F5" stroke="#C19D60" stroke-width="2" stroke-miterlimit="10" stroke-linejoin="round"/>
<path d="M1051.41 34.5716C1050.75 32.9898 1049.46 31.7087 1047.83 31.0001C1049.46 30.2916 1050.75 29.0104 1051.41 27.4287C1052.06 29.0104 1053.35 30.2916 1054.98 31.0001C1053.35 31.7087 1052.06 32.9898 1051.41 34.5716Z" fill="#C19D60"/>
<path d="M1096.86 37C1095.76 34.3427 1093.6 32.1904 1090.86 31C1093.6 29.8096 1095.76 27.6573 1096.86 25C1097.96 27.6573 1100.12 29.8096 1102.86 31C1100.12 32.1904 1097.96 34.3427 1096.86 37Z" fill="white"/>
<path d="M1145.72 19.3819L1142.33 16L1138.95 19.3819C1136.77 21.5586 1136.66 25.0158 1138.62 27.3131C1136.32 25.3548 1132.86 25.4602 1130.69 27.637L1127.31 31.0188L1130.69 34.4007C1132.8 36.5097 1136.12 36.6678 1138.42 34.8903C1136.64 37.1875 1136.8 40.5092 1138.91 42.6181L1142.29 46L1145.67 42.6181C1147.85 40.4414 1147.95 36.9842 1146 34.6869C1148.3 36.6452 1151.76 36.5398 1153.93 34.363L1157.31 30.9812L1153.93 27.5993C1151.82 25.4903 1148.5 25.3322 1146.2 27.1097C1147.98 24.8125 1147.82 21.4908 1145.71 19.3819H1145.72Z" fill="#F7F6F5" stroke="#C19D60" stroke-width="2" stroke-miterlimit="10" stroke-linejoin="round"/>
<path d="M1142.31 34.5716C1141.65 32.9898 1140.37 31.7087 1138.74 31.0001C1140.37 30.2916 1141.65 29.0104 1142.31 27.4287C1142.96 29.0104 1144.25 30.2916 1145.88 31.0001C1144.25 31.7087 1142.96 32.9898 1142.31 34.5716Z" fill="#C19D60"/>
<path d="M1187.76 37C1186.66 34.3427 1184.5 32.1904 1181.76 31C1184.5 29.8096 1186.66 27.6573 1187.76 25C1188.86 27.6573 1191.02 29.8096 1193.76 31C1191.02 32.1904 1188.86 34.3427 1187.76 37Z" fill="white"/>
<path d="M1236.62 19.3819L1233.23 16L1229.85 19.3819C1227.67 21.5586 1227.57 25.0158 1229.53 27.3131C1227.22 25.3548 1223.77 25.4602 1221.6 27.637L1218.21 31.0188L1221.6 34.4007C1223.71 36.5097 1227.03 36.6678 1229.32 34.8903C1227.55 37.1875 1227.7 40.5092 1229.81 42.6181L1233.2 46L1236.58 42.6181C1238.75 40.4414 1238.86 36.9842 1236.9 34.6869C1239.21 36.6452 1242.66 36.5398 1244.83 34.363L1248.21 30.9812L1244.83 27.5993C1242.72 25.4903 1239.4 25.3322 1237.1 27.1097C1238.88 24.8125 1238.72 21.4908 1236.62 19.3819H1236.62Z" fill="#F7F6F5" stroke="#C19D60" stroke-width="2" stroke-miterlimit="10" stroke-linejoin="round"/>
<path d="M1233.21 34.5716C1232.56 32.9898 1231.27 31.7087 1229.64 31.0001C1231.27 30.2916 1232.56 29.0104 1233.21 27.4287C1233.87 29.0104 1235.16 30.2916 1236.79 31.0001C1235.16 31.7087 1233.87 32.9898 1233.21 34.5716Z" fill="#C19D60"/>
<path d="M1278.67 37C1277.57 34.3427 1275.4 32.1904 1272.67 31C1275.4 29.8096 1277.57 27.6573 1278.67 25C1279.77 27.6573 1281.93 29.8096 1284.67 31C1281.93 32.1904 1279.77 34.3427 1278.67 37Z" fill="white"/>
<path d="M1327.53 19.3819L1324.14 16L1320.76 19.3819C1318.58 21.5586 1318.47 25.0158 1320.43 27.3131C1318.13 25.3548 1314.67 25.4602 1312.5 27.637L1309.12 31.0188L1312.5 34.4007C1314.61 36.5097 1317.93 36.6678 1320.23 34.8903C1318.45 37.1875 1318.61 40.5092 1320.72 42.6181L1324.1 46L1327.48 42.6181C1329.66 40.4414 1329.76 36.9842 1327.81 34.6869C1330.11 36.6452 1333.57 36.5398 1335.74 34.363L1339.12 30.9812L1335.74 27.5993C1333.63 25.4903 1330.31 25.3322 1328.01 27.1097C1329.79 24.8125 1329.63 21.4908 1327.52 19.3819H1327.53Z" fill="#F7F6F5" stroke="#C19D60" stroke-width="2" stroke-miterlimit="10" stroke-linejoin="round"/>
<path d="M1324.12 34.5716C1323.46 32.9898 1322.18 31.7087 1320.55 31.0001C1322.18 30.2916 1323.46 29.0104 1324.12 27.4287C1324.77 29.0104 1326.06 30.2916 1327.69 31.0001C1326.06 31.7087 1324.77 32.9898 1324.12 34.5716Z" fill="#C19D60"/>
<path d="M1369.57 37C1368.47 34.3427 1366.31 32.1904 1363.57 31C1366.31 29.8096 1368.47 27.6573 1369.57 25C1370.67 27.6573 1372.83 29.8096 1375.57 31C1372.83 32.1904 1370.67 34.3427 1369.57 37Z" fill="white"/>
<path d="M1418.43 19.3819L1415.04 16L1411.66 19.3819C1409.48 21.5586 1409.38 25.0158 1411.34 27.3131C1409.03 25.3548 1405.58 25.4602 1403.41 27.637L1400.02 31.0188L1403.41 34.4007C1405.51 36.5097 1408.84 36.6678 1411.13 34.8903C1409.36 37.1875 1409.51 40.5092 1411.62 42.6181L1415.01 46L1418.39 42.6181C1420.56 40.4414 1420.67 36.9842 1418.71 34.6869C1421.02 36.6452 1424.47 36.5398 1426.64 34.363L1430.02 30.9812L1426.64 27.5993C1424.53 25.4903 1421.21 25.3322 1418.91 27.1097C1420.69 24.8125 1420.53 21.4908 1418.42 19.3819H1418.43Z" fill="#F7F6F5" stroke="#C19D60" stroke-width="2" stroke-miterlimit="10" stroke-linejoin="round"/>
<path d="M1415.02 34.5716C1414.37 32.9898 1413.08 31.7087 1411.45 31.0001C1413.08 30.2916 1414.37 29.0104 1415.02 27.4287C1415.68 29.0104 1416.97 30.2916 1418.6 31.0001C1416.97 31.7087 1415.68 32.9898 1415.02 34.5716Z" fill="#C19D60"/>
<path d="M1460.48 37C1459.38 34.3427 1457.21 32.1904 1454.48 31C1457.21 29.8096 1459.38 27.6573 1460.48 25C1461.58 27.6573 1463.74 29.8096 1466.48 31C1463.74 32.1904 1461.58 34.3427 1460.48 37Z" fill="white"/>
<path d="M1509.34 19.3819L1505.95 16L1502.57 19.3819C1500.39 21.5586 1500.28 25.0158 1502.24 27.3131C1499.94 25.3548 1496.48 25.4602 1494.31 27.637L1490.93 31.0188L1494.31 34.4007C1496.42 36.5097 1499.74 36.6678 1502.04 34.8903C1500.26 37.1875 1500.42 40.5092 1502.53 42.6181L1505.91 46L1509.29 42.6181C1511.47 40.4414 1511.57 36.9842 1509.62 34.6869C1511.92 36.6452 1515.38 36.5398 1517.55 34.363L1520.93 30.9812L1517.55 27.5993C1515.44 25.4903 1512.12 25.3322 1509.82 27.1097C1511.6 24.8125 1511.44 21.4908 1509.33 19.3819H1509.34Z" fill="#F7F6F5" stroke="#C19D60" stroke-width="2" stroke-miterlimit="10" stroke-linejoin="round"/>
<path d="M1505.93 34.5716C1505.27 32.9898 1503.99 31.7087 1502.36 31.0001C1503.99 30.2916 1505.27 29.0104 1505.93 27.4287C1506.58 29.0104 1507.87 30.2916 1509.5 31.0001C1507.87 31.7087 1506.58 32.9898 1505.93 34.5716Z" fill="#C19D60"/>
<path d="M1551.38 37C1550.28 34.3427 1548.12 32.1904 1545.38 31C1548.12 29.8096 1550.28 27.6573 1551.38 25C1552.48 27.6573 1554.64 29.8096 1557.38 31C1554.64 32.1904 1552.48 34.3427 1551.38 37Z" fill="white"/>
<path d="M1600.24 19.3819L1596.85 16L1593.47 19.3819C1591.29 21.5586 1591.19 25.0158 1593.15 27.3131C1590.84 25.3548 1587.38 25.4602 1585.22 27.637L1581.83 31.0188L1585.22 34.4007C1587.32 36.5097 1590.65 36.6678 1592.94 34.8903C1591.17 37.1875 1591.32 40.5092 1593.43 42.6181L1596.81 46L1600.2 42.6181C1602.37 40.4414 1602.48 36.9842 1600.52 34.6869C1602.83 36.6452 1606.28 36.5398 1608.45 34.363L1611.83 30.9812L1608.45 27.5993C1606.34 25.4903 1603.02 25.3322 1600.72 27.1097C1602.5 24.8125 1602.34 21.4908 1600.23 19.3819H1600.24Z" fill="#F7F6F5" stroke="#C19D60" stroke-width="2" stroke-miterlimit="10" stroke-linejoin="round"/>
<path d="M1596.83 34.5716C1596.18 32.9898 1594.89 31.7087 1593.26 31.0001C1594.89 30.2916 1596.18 29.0104 1596.83 27.4287C1597.49 29.0104 1598.78 30.2916 1600.41 31.0001C1598.78 31.7087 1597.49 32.9898 1596.83 34.5716Z" fill="#C19D60"/>
<path d="M1642.29 37C1641.19 34.3427 1639.02 32.1904 1636.29 31C1639.02 29.8096 1641.19 27.6573 1642.29 25C1643.39 27.6573 1645.55 29.8096 1648.29 31C1645.55 32.1904 1643.39 34.3427 1642.29 37Z" fill="white"/>
<path d="M1691.15 19.3819L1687.76 16L1684.38 19.3819C1682.2 21.5586 1682.09 25.0158 1684.05 27.3131C1681.75 25.3548 1678.29 25.4602 1676.12 27.637L1672.74 31.0188L1676.12 34.4007C1678.23 36.5097 1681.55 36.6678 1683.85 34.8903C1682.07 37.1875 1682.23 40.5092 1684.34 42.6181L1687.72 46L1691.1 42.6181C1693.28 40.4414 1693.38 36.9842 1691.43 34.6869C1693.73 36.6452 1697.19 36.5398 1699.36 34.363L1702.74 30.9812L1699.36 27.5993C1697.25 25.4903 1693.93 25.3322 1691.63 27.1097C1693.41 24.8125 1693.25 21.4908 1691.14 19.3819H1691.15Z" fill="#F7F6F5" stroke="#C19D60" stroke-width="2" stroke-miterlimit="10" stroke-linejoin="round"/>
<path d="M1687.74 34.5716C1687.08 32.9898 1685.8 31.7087 1684.17 31.0001C1685.8 30.2916 1687.08 29.0104 1687.74 27.4287C1688.39 29.0104 1689.68 30.2916 1691.31 31.0001C1689.68 31.7087 1688.39 32.9898 1687.74 34.5716Z" fill="#C19D60"/>
<path d="M1733.19 37C1732.09 34.3427 1729.93 32.1904 1727.19 31C1729.93 29.8096 1732.09 27.6573 1733.19 25C1734.29 27.6573 1736.45 29.8096 1739.19 31C1736.45 32.1904 1734.29 34.3427 1733.19 37Z" fill="white"/>
<path d="M1782.05 19.3819L1778.66 16L1775.28 19.3819C1773.1 21.5586 1773 25.0158 1774.96 27.3131C1772.65 25.3548 1769.19 25.4602 1767.02 27.637L1763.64 31.0188L1767.02 34.4007C1769.13 36.5097 1772.46 36.6678 1774.75 34.8903C1772.98 37.1875 1773.13 40.5092 1775.24 42.6181L1778.62 46L1782.01 42.6181C1784.18 40.4414 1784.29 36.9842 1782.33 34.6869C1784.63 36.6452 1788.09 36.5398 1790.26 34.363L1793.64 30.9812L1790.26 27.5993C1788.15 25.4903 1784.83 25.3322 1782.53 27.1097C1784.31 24.8125 1784.15 21.4908 1782.04 19.3819H1782.05Z" fill="#F7F6F5" stroke="#C19D60" stroke-width="2" stroke-miterlimit="10" stroke-linejoin="round"/>
<path d="M1778.64 34.5716C1777.99 32.9898 1776.7 31.7087 1775.07 31.0001C1776.7 30.2916 1777.99 29.0104 1778.64 27.4287C1779.3 29.0104 1780.59 30.2916 1782.21 31.0001C1780.59 31.7087 1779.3 32.9898 1778.64 34.5716Z" fill="#C19D60"/>
<path d="M1824.1 37C1823 34.3427 1820.83 32.1904 1818.1 31C1820.83 29.8096 1823 27.6573 1824.1 25C1825.2 27.6573 1827.36 29.8096 1830.1 31C1827.36 32.1904 1825.2 34.3427 1824.1 37Z" fill="white"/>
<path d="M1872.96 19.3819L1869.57 16L1866.18 19.3819C1864.01 21.5586 1863.9 25.0158 1865.86 27.3131C1863.56 25.3548 1860.1 25.4602 1857.93 27.637L1854.55 31.0188L1857.93 34.4007C1860.04 36.5097 1863.36 36.6678 1865.66 34.8903C1863.88 37.1875 1864.04 40.5092 1866.15 42.6181L1869.53 46L1872.91 42.6181C1875.09 40.4414 1875.19 36.9842 1873.23 34.6869C1875.54 36.6452 1879 36.5398 1881.17 34.363L1884.55 30.9812L1881.17 27.5993C1879.06 25.4903 1875.74 25.3322 1873.44 27.1097C1875.22 24.8125 1875.06 21.4908 1872.95 19.3819H1872.96Z" fill="#F7F6F5" stroke="#C19D60" stroke-width="2" stroke-miterlimit="10" stroke-linejoin="round"/>
<path d="M1869.55 34.5716C1868.89 32.9898 1867.61 31.7087 1865.98 31.0001C1867.61 30.2916 1868.89 29.0104 1869.55 27.4287C1870.2 29.0104 1871.49 30.2916 1873.12 31.0001C1871.49 31.7087 1870.2 32.9898 1869.55 34.5716Z" fill="#C19D60"/>
<path d="M1915 37C1913.9 34.3427 1911.74 32.1904 1909 31C1911.74 29.8096 1913.9 27.6573 1915 25C1916.1 27.6573 1918.26 29.8096 1921 31C1918.26 32.1904 1916.1 34.3427 1915 37Z" fill="white"/>
</svg>
