<svg width="287" height="293" viewBox="0 0 287 293" fill="none" xmlns="http://www.w3.org/2000/svg">
<path d="M196.836 271.809L204.415 279.388L211.993 271.809C216.838 266.965 216.866 259.228 212.498 254.127C217.6 258.458 225.373 258.429 230.181 253.621L237.76 246.043L230.181 238.465C225.483 233.767 218.142 233.527 213.004 237.454C216.968 232.353 216.691 224.975 211.993 220.277L204.415 212.698L196.837 220.277C191.992 225.121 191.964 232.858 196.331 237.959C191.23 233.628 183.457 233.657 178.648 238.465L171.07 246.043L178.648 253.621C183.346 258.319 190.688 258.559 195.826 254.632C191.862 259.734 192.139 267.111 196.836 271.809Z" fill="#F7F6F5"/>
<path d="M204.92 237.959C206.347 241.652 208.912 244.361 212.498 246.043C208.949 247.688 206.347 250.939 204.92 254.632C203.493 250.939 200.422 247.725 196.836 246.043C200.386 244.398 203.493 241.652 204.92 237.959Z" fill="#C19D60"/>
<path d="M217.639 166.776C213.547 163.779 214.152 157.329 214.152 157.329C214.152 157.329 218.96 155.093 223.052 158.09C227.144 161.088 228.176 168.825 228.176 168.825C228.176 168.825 221.741 169.787 217.639 166.776Z" stroke="#F7F6F5" stroke-width="2" stroke-linejoin="round"/>
<path d="M74.025 129.726C93.7148 168.489 131.982 188.411 164.343 181.103C175.283 178.63 185.975 173.511 205.072 152.006C227.687 126.524 243.16 133.815 247.115 135.325C258.764 139.756 260.419 154.652 256.029 161.67C255.503 162.528 254.664 164.012 254.09 164.703" stroke="#F7F6F5" stroke-width="2" stroke-linejoin="round"/>
<path d="M254.278 164.489C254.278 164.489 255.507 175.444 238.37 173.654C216.29 171.358 217.682 180.776 217.682 180.776C217.682 180.776 213.769 173.186 217.297 169.557C220.825 165.929 226.334 166.372 226.334 166.372C226.334 166.372 224.637 158.424 229.58 154.891C231.771 153.312 235.516 153.477 235.516 153.477C235.516 153.477 227.099 161.155 239.175 167.27C247.452 171.473 254.278 164.489 254.278 164.489Z" fill="#F7F6F5"/>
<path d="M254.278 164.489C254.278 164.489 255.507 175.444 238.37 173.654C216.29 171.358 217.682 180.776 217.682 180.776C217.682 180.776 213.769 173.186 217.297 169.557C220.825 165.929 226.334 166.372 226.334 166.372C226.334 166.372 224.637 158.424 229.58 154.891C231.771 153.312 235.516 153.477 235.516 153.477C235.516 153.477 227.099 161.155 239.175 167.27C247.452 171.473 254.278 164.489 254.278 164.489Z" stroke="#F7F6F5" stroke-width="2" stroke-linejoin="round"/>
<path d="M274.458 138.93C279.766 129.79 269.777 122.595 269.777 122.595C269.777 122.595 273.157 130.326 266.884 135.945C260.611 141.565 254.331 139.744 253.882 139.921C253.432 140.099 269.027 148.272 274.458 138.93Z" stroke="#F7F6F5" stroke-width="2" stroke-linejoin="round"/>
<path d="M62.5124 242.991C59.1385 245.26 51.3658 250.13 40.2649 250.867C26.6134 251.779 11.3245 244.835 7.88574 240.991" stroke="#F7F6F5" stroke-width="2" stroke-linecap="round" stroke-linejoin="round"/>
<path d="M62.0605 242.089C57.4858 243.955 44.3885 248.065 30.9286 242.762C27.7471 241.505 25.2602 240.093 23.041 238.464" stroke="#F7F6F5" stroke-width="2" stroke-linecap="round" stroke-linejoin="round"/>
<path d="M61.4084 239.768C56.9345 240.63 49.3714 241.058 41.1515 238.083C38.8538 237.253 37.4018 236.949 35.6719 235.938" stroke="#F7F6F5" stroke-width="2" stroke-linecap="round" stroke-linejoin="round"/>
<path d="M34.1002 236.359C35.7508 236.079 36.8655 234.513 36.5901 232.862C36.3147 231.21 34.7534 230.099 33.1028 230.379C31.4523 230.659 30.3375 232.225 30.6129 233.876C30.8884 235.528 32.4497 236.639 34.1002 236.359Z" fill="#F7F6F5" stroke="#F7F6F5" stroke-width="2" stroke-linecap="round" stroke-linejoin="round"/>
<path d="M20.9654 238.38C22.616 238.1 23.7308 236.534 23.4553 234.883C23.1799 233.231 21.6186 232.12 19.9681 232.4C18.3175 232.68 17.2028 234.246 17.4782 235.897C17.7536 237.549 19.3149 238.66 20.9654 238.38Z" fill="#F7F6F5" stroke="#F7F6F5" stroke-width="2" stroke-linecap="round" stroke-linejoin="round"/>
<path d="M6.81897 240.906C8.46951 240.626 9.58427 239.06 9.30885 237.408C9.03343 235.757 7.47212 234.646 5.82158 234.926C4.17104 235.206 3.05628 236.772 3.3317 238.423C3.60712 240.074 5.16842 241.186 6.81897 240.906Z" fill="#F7F6F5" stroke="#F7F6F5" stroke-width="2" stroke-linecap="round" stroke-linejoin="round"/>
<path d="M122.891 218.917C122.891 218.917 134.291 240.972 96.6632 252.066C48.2194 266.346 58.0659 284.754 58.0659 284.754C58.0659 284.754 43.511 271.504 47.933 260.852C52.355 250.199 64.4508 246.261 64.4508 246.261C64.4508 246.261 55.651 231.532 63.1174 219.84C66.4331 214.639 74.0743 211.831 74.0743 211.831C74.0743 211.831 63.2073 235.294 93.7548 237.699C114.691 239.34 122.891 218.917 122.891 218.917V218.917Z" stroke="#F7F6F5" stroke-width="2" stroke-linecap="round" stroke-linejoin="round"/>
<path d="M74.0679 130.347C82.6104 191.479 135.129 184.406 122.064 220.276" stroke="#F7F6F5" stroke-width="2" stroke-linejoin="round"/>
<path d="M88.883 160.661C119.655 193.746 170.485 164.21 149.51 137.926C145.115 132.419 139.659 131.034 137.384 126.811C136.26 124.716 136.583 122.806 137.384 121.758L135.363 121.758C133.502 123.17 130.861 126.791 133.343 132.368C140.813 149.111 126.079 160.724 111.113 157.124C65.8916 146.229 75.7472 100.034 75.7472 100.034C75.4628 100.646 75.1115 101.619 74.7367 102.56C68.0679 119.385 73.1803 143.765 88.883 160.661Z" fill="#F7F6F5"/>
<path d="M250.784 67.6475C248.304 7.7612 171.679 -0.398262 170.213 44.4751C169.904 53.8783 174.569 59.7085 173.244 66.072C172.583 69.2246 170.581 71.1329 168.898 71.6523L170.491 72.8961C173.536 72.8008 179.304 71.5987 181.572 63.6012C188.36 39.5759 213.578 38.6992 225.38 54.2207C261.026 101.138 212.391 144.075 212.391 144.075C213.192 143.629 214.277 143.351 215.448 142.616C236.34 129.46 251.728 98.6191 250.473 68.0461L250.784 67.6475Z" fill="#F7F6F5"/>
</svg>
