<svg width="1878" height="521" viewBox="0 0 1878 521" fill="none" xmlns="http://www.w3.org/2000/svg">
<path d="M118.343 354.207L108.467 364.082L98.5915 354.207C92.278 347.893 92.2414 337.812 97.9331 331.163C91.2848 336.807 81.1555 336.771 74.8899 330.505L65.0142 320.629L74.8899 310.754C81.012 304.632 90.5786 304.319 97.2747 309.437C92.1091 302.789 92.4693 293.174 98.5915 287.052L108.467 277.176L118.343 287.052C124.656 293.366 124.693 303.447 119.001 310.095C125.649 304.452 135.779 304.488 142.044 310.754L151.92 320.629L142.044 330.505C135.922 336.627 126.356 336.94 119.66 331.822C124.825 338.47 124.465 348.085 118.343 354.207Z" fill="#C19D60"/>
<path d="M107.809 310.095C105.949 314.907 102.606 318.438 97.9331 320.629C102.559 322.773 105.949 327.01 107.809 331.822C109.669 327.01 113.67 322.821 118.343 320.629C113.717 318.485 109.669 314.907 107.809 310.095Z" fill="#F7F6F5"/>
<path d="M107.809 310.095C105.949 314.907 102.606 318.438 97.9331 320.629C102.559 322.773 105.949 327.01 107.809 331.822C109.669 327.01 113.67 322.821 118.343 320.629C113.717 318.485 109.669 314.907 107.809 310.095Z" stroke="#F7F6F5" stroke-width="0.493607" stroke-linecap="round" stroke-linejoin="round"/>
<path d="M91.2353 217.334C96.5676 213.427 95.7796 205.023 95.7796 205.023C95.7796 205.023 89.5143 202.108 84.182 206.015C78.8497 209.921 77.5046 220.003 77.5046 220.003C77.5046 220.003 85.8902 221.257 91.2353 217.334Z" stroke="#C19D60" stroke-width="2" stroke-linejoin="round"/>
<path d="M278.384 169.052C252.726 219.565 202.858 245.527 160.687 236.004C146.43 232.781 132.497 226.11 107.611 198.086C78.1408 164.879 57.9772 174.381 52.823 176.348C37.6422 182.123 35.4862 201.535 41.2068 210.68C41.8927 211.797 42.985 213.732 43.7337 214.632" stroke="#C19D60" stroke-width="2" stroke-linejoin="round"/>
<path d="M43.4896 214.354C43.4896 214.354 41.8886 228.629 64.2198 226.297C92.9943 223.305 91.1791 235.577 91.1791 235.577C91.1791 235.577 96.2788 225.687 91.6813 220.958C87.0838 216.23 79.9045 216.808 79.9045 216.808C79.9045 216.808 82.1162 206.45 75.6745 201.846C72.8201 199.788 67.9398 200.003 67.9398 200.003C67.9398 200.003 78.9076 210.009 63.1714 217.977C52.3853 223.454 43.4896 214.354 43.4896 214.354Z" fill="#C19D60"/>
<path d="M43.4896 214.354C43.4896 214.354 41.8886 228.629 64.2198 226.297C92.9943 223.305 91.1791 235.577 91.1791 235.577C91.1791 235.577 96.2788 225.687 91.6813 220.958C87.0838 216.23 79.9045 216.808 79.9045 216.808C79.9045 216.808 82.1162 206.45 75.6745 201.846C72.8201 199.788 67.9398 200.003 67.9398 200.003C67.9398 200.003 78.9076 210.009 63.1714 217.977C52.3853 223.454 43.4896 214.354 43.4896 214.354Z" stroke="#C19D60" stroke-width="2" stroke-linejoin="round"/>
<path d="M17.1912 181.046C10.2751 169.135 23.2917 159.759 23.2917 159.759C23.2917 159.759 18.8874 169.834 27.0618 177.157C35.2363 184.48 43.4196 182.107 44.0056 182.338C44.5915 182.569 24.2686 193.22 17.1912 181.046Z" stroke="#C19D60" stroke-width="2" stroke-linejoin="round"/>
<path d="M278.328 169.861C267.196 249.525 198.757 240.307 215.783 287.052" stroke="#C19D60" stroke-width="2" stroke-linejoin="round"/>
<path d="M259.022 209.364C218.921 252.479 152.682 213.99 180.017 179.737C185.743 172.561 192.853 170.757 195.818 165.253C197.283 162.523 196.862 160.033 195.818 158.669L198.451 158.669C200.876 160.509 204.318 165.227 201.085 172.495C191.35 194.313 210.55 209.447 230.053 204.755C288.983 190.558 276.14 130.359 276.14 130.359C276.51 131.156 276.968 132.424 277.457 133.65C286.147 155.576 279.485 187.347 259.022 209.364Z" fill="#C19D60"/>
<path d="M293.388 316.652C297.784 319.61 307.913 325.956 322.379 326.917C340.169 328.105 360.093 319.056 364.574 314.046" stroke="#C19D60" stroke-width="2" stroke-linecap="round" stroke-linejoin="round"/>
<path d="M293.975 315.478C299.937 317.909 317.004 323.265 334.545 316.355C338.691 314.716 341.931 312.876 344.823 310.754" stroke="#C19D60" stroke-width="2" stroke-linecap="round" stroke-linejoin="round"/>
<path d="M294.826 312.453C300.656 313.575 310.512 314.134 321.224 310.257C324.218 309.175 326.11 308.779 328.364 307.462" stroke="#C19D60" stroke-width="2" stroke-linecap="round" stroke-linejoin="round"/>
<path d="M330.412 308.01C328.261 307.645 326.809 305.605 327.168 303.453C327.526 301.301 329.561 299.852 331.712 300.217C333.863 300.583 335.316 302.623 334.957 304.775C334.598 306.927 332.563 308.376 330.412 308.01Z" fill="#C19D60" stroke="#C19D60" stroke-width="2" stroke-linecap="round" stroke-linejoin="round"/>
<path d="M347.529 310.644C345.379 310.279 343.926 308.238 344.285 306.086C344.644 303.934 346.678 302.486 348.829 302.851C350.98 303.216 352.433 305.256 352.074 307.408C351.715 309.56 349.68 311.009 347.529 310.644Z" fill="#C19D60" stroke="#C19D60" stroke-width="2" stroke-linecap="round" stroke-linejoin="round"/>
<path d="M365.964 313.936C363.813 313.571 362.36 311.53 362.719 309.378C363.078 307.226 365.113 305.778 367.264 306.143C369.415 306.508 370.867 308.549 370.508 310.701C370.149 312.852 368.115 314.301 365.964 313.936Z" fill="#C19D60" stroke="#C19D60" stroke-width="2" stroke-linecap="round" stroke-linejoin="round"/>
<path d="M215 285C215 285 199.849 314.022 248.884 328.48C312.013 347.089 299.181 371.076 299.181 371.076C299.181 371.076 318.149 353.81 312.386 339.928C306.624 326.047 290.861 320.915 290.861 320.915C290.861 320.915 302.328 301.721 292.599 286.484C288.278 279.706 278.32 276.047 278.32 276.047C278.32 276.047 292.481 306.623 252.674 309.757C225.391 311.896 215 285 215 285Z" stroke="#C19D60" stroke-width="2" stroke-linecap="round" stroke-linejoin="round"/>
<path d="M48.0418 88.1545C51.2729 10.114 151.127 -0.518998 153.037 57.9576C153.44 70.2113 147.36 77.8089 149.087 86.1014C149.948 90.2096 152.557 92.6965 154.751 93.3733L152.676 94.9941C148.707 94.87 141.19 93.3035 138.235 82.8816C129.389 51.5731 96.5258 50.4307 81.1467 70.6575C34.6952 131.798 98.0736 187.75 98.0736 187.75C97.0295 187.169 95.6148 186.807 94.0895 185.849C66.8641 168.705 46.8115 128.515 48.4464 88.674L48.0418 88.1545Z" fill="#C19D60"/>
<path d="M676.15 286.727C670.397 290.933 671.248 299.984 671.248 299.984C671.248 299.984 678.006 303.122 683.759 298.916C689.511 294.709 690.962 283.852 690.962 283.852C690.962 283.852 681.916 282.502 676.15 286.727Z" stroke="#C19D60" stroke-width="2" stroke-linejoin="round"/>
<path d="M474.258 338.718C501.938 284.324 555.734 256.368 601.227 266.622C616.607 270.093 631.638 277.277 658.484 307.454C690.275 343.211 712.027 332.979 717.587 330.861C733.964 324.643 736.29 303.74 730.119 293.892C729.379 292.689 728.2 290.606 727.393 289.636" stroke="#C19D60" stroke-width="2" stroke-linejoin="round"/>
<path d="M727.656 289.936C727.656 289.936 729.383 274.564 705.293 277.075C674.252 280.297 676.21 267.082 676.21 267.082C676.21 267.082 670.709 277.732 675.668 282.824C680.628 287.916 688.373 287.293 688.373 287.293C688.373 287.293 685.987 298.447 692.936 303.405C696.015 305.62 701.28 305.389 701.28 305.389C701.28 305.389 689.448 294.615 706.424 286.034C718.06 280.136 727.656 289.936 727.656 289.936Z" fill="#C19D60"/>
<path d="M727.656 289.936C727.656 289.936 729.383 274.564 705.293 277.075C674.252 280.297 676.21 267.082 676.21 267.082C676.21 267.082 670.709 277.732 675.668 282.824C680.628 287.916 688.373 287.293 688.373 287.293C688.373 287.293 685.987 298.447 692.936 303.405C696.015 305.62 701.28 305.389 701.28 305.389C701.28 305.389 689.448 294.615 706.424 286.034C718.06 280.136 727.656 289.936 727.656 289.936Z" stroke="#C19D60" stroke-width="2" stroke-linejoin="round"/>
<path d="M756.026 325.802C763.487 338.628 749.445 348.724 749.445 348.724C749.445 348.724 754.196 337.876 745.378 329.99C736.56 322.105 727.732 324.66 727.1 324.411C726.467 324.162 748.391 312.693 756.026 325.802Z" stroke="#C19D60" stroke-width="2" stroke-linejoin="round"/>
<path d="M474.317 337.846C486.326 252.062 560.156 261.987 541.79 211.651" stroke="#C19D60" stroke-width="2" stroke-linejoin="round"/>
<g clip-path="url(#clip0_236_7959)">
<path d="M495.145 295.309C538.405 248.882 609.862 290.328 580.374 327.212C574.197 334.938 566.526 336.882 563.328 342.809C561.748 345.748 562.202 348.429 563.328 349.898L560.487 349.898C557.871 347.917 554.158 342.836 557.646 335.01C568.148 311.516 547.435 295.219 526.396 300.271C462.824 315.56 476.679 380.383 476.679 380.383C476.279 379.525 475.786 378.159 475.259 376.839C465.884 353.229 473.071 319.017 495.145 295.309Z" fill="#C19D60"/>
</g>
<path d="M458.069 179.778C453.326 176.593 442.399 169.759 426.794 168.725C407.603 167.446 386.11 177.189 381.275 182.584" stroke="#C19D60" stroke-width="2" stroke-linecap="round" stroke-linejoin="round"/>
<path d="M457.435 181.043C451.004 178.425 432.592 172.658 413.67 180.099C409.198 181.863 405.702 183.845 402.582 186.13" stroke="#C19D60" stroke-width="2" stroke-linecap="round" stroke-linejoin="round"/>
<path d="M456.517 184.299C450.228 183.091 439.596 182.489 428.04 186.664C424.81 187.828 422.769 188.255 420.337 189.673" stroke="#C19D60" stroke-width="2" stroke-linecap="round" stroke-linejoin="round"/>
<path d="M418.128 189.084C420.448 189.477 422.015 191.674 421.628 193.991C421.241 196.309 419.046 197.868 416.726 197.475C414.405 197.082 412.838 194.885 413.225 192.568C413.613 190.25 415.808 188.691 418.128 189.084Z" fill="#C19D60" stroke="#C19D60" stroke-width="2" stroke-linecap="round" stroke-linejoin="round"/>
<path d="M399.662 186.248C401.982 186.641 403.549 188.838 403.162 191.155C402.775 193.473 400.58 195.032 398.26 194.639C395.94 194.246 394.372 192.049 394.76 189.731C395.147 187.414 397.342 185.854 399.662 186.248Z" fill="#C19D60" stroke="#C19D60" stroke-width="2" stroke-linecap="round" stroke-linejoin="round"/>
<path d="M379.775 182.703C382.096 183.096 383.663 185.293 383.276 187.61C382.889 189.928 380.694 191.487 378.373 191.094C376.053 190.701 374.486 188.504 374.873 186.186C375.26 183.869 377.455 182.309 379.775 182.703Z" fill="#C19D60" stroke="#C19D60" stroke-width="2" stroke-linecap="round" stroke-linejoin="round"/>
<path d="M542.5 214C542.5 214 558.979 182.609 506.082 167.041C437.979 147.003 451.822 121.172 451.822 121.172C451.822 121.172 431.36 139.765 437.577 154.713C443.793 169.661 460.798 175.187 460.798 175.187C460.798 175.187 448.427 195.856 458.923 212.263C463.584 219.562 474.326 223.502 474.326 223.502C474.326 223.502 459.049 190.576 501.993 187.202C531.425 184.899 542.5 214 542.5 214Z" stroke="#C19D60" stroke-width="2" stroke-linecap="round" stroke-linejoin="round"/>
<path d="M722.744 425.829C719.259 509.865 611.539 521.315 609.478 458.346C609.044 445.151 615.602 436.969 613.739 428.04C612.811 423.616 609.996 420.938 607.629 420.209L609.869 418.464C614.149 418.598 622.259 420.284 625.447 431.507C634.989 465.221 670.441 466.451 687.032 444.67C737.142 378.833 668.772 318.582 668.772 318.582C669.898 319.208 671.424 319.598 673.069 320.629C702.439 339.09 724.072 382.368 722.308 425.27L722.744 425.829Z" fill="#C19D60"/>
<path d="M939 80C935.333 71.1423 928.126 63.9679 919 60C928.126 56.0321 935.333 48.8577 939 40C942.668 48.8577 949.874 56.0321 959 60C949.874 63.9679 942.668 71.1423 939 80Z" fill="#C19D60"/>
<path d="M958.086 200.938L939.106 182L920.167 200.938C907.977 213.128 907.387 232.489 918.353 245.353C905.447 234.387 886.086 234.977 873.939 247.167L855 266.105L873.939 285.044C885.749 296.854 904.35 297.74 917.215 287.786C907.26 300.65 908.146 319.251 919.956 331.062L938.895 350L957.833 331.062C970.023 318.872 970.614 299.511 959.647 286.647C972.554 297.613 991.914 297.023 1004.06 284.833L1023 265.895L1004.06 246.956C992.252 235.146 973.651 234.26 960.786 244.214C970.74 231.35 969.854 212.749 958.044 200.938H958.086Z" fill="#F7F6F5" stroke="#C19D60" stroke-width="2" stroke-miterlimit="10" stroke-linejoin="round"/>
<path d="M939 286C935.333 277.142 928.126 269.968 919 266C928.126 262.032 935.333 254.858 939 246C942.668 254.858 949.874 262.032 959 266C949.874 269.968 942.668 277.142 939 286Z" fill="#C19D60"/>
<path d="M1094.51 266C1023.94 297.291 968.066 352.875 939 421.413C909.934 352.875 854.062 297.291 783.488 266C854.062 234.709 909.934 179.125 939 110.587C968.066 179.125 1023.94 234.709 1094.51 266Z" stroke="#C19D60" stroke-width="2"/>
<path d="M1759.88 354.207L1769.76 364.082L1779.63 354.207C1785.95 347.893 1785.98 337.812 1780.29 331.163C1786.94 336.807 1797.07 336.771 1803.33 330.505L1813.21 320.629L1803.33 310.754C1797.21 304.632 1787.65 304.319 1780.95 309.437C1786.12 302.789 1785.75 293.174 1779.63 287.052L1769.76 277.176L1759.88 287.052C1753.57 293.366 1753.53 303.447 1759.22 310.095C1752.57 304.452 1742.45 304.488 1736.18 310.754L1726.3 320.629L1736.18 330.505C1742.3 336.627 1751.87 336.94 1758.56 331.822C1753.4 338.47 1753.76 348.085 1759.88 354.207Z" fill="#C19D60"/>
<path d="M1770.42 310.095C1772.28 314.907 1775.62 318.438 1780.29 320.629C1775.67 322.773 1772.28 327.01 1770.42 331.822C1768.56 327.01 1764.55 322.821 1759.88 320.629C1764.51 318.485 1768.56 314.907 1770.42 310.095Z" fill="#F7F6F5"/>
<path d="M1770.42 310.095C1772.28 314.907 1775.62 318.438 1780.29 320.629C1775.67 322.773 1772.28 327.01 1770.42 331.822C1768.56 327.01 1764.55 322.821 1759.88 320.629C1764.51 318.485 1768.56 314.907 1770.42 310.095Z" stroke="#F7F6F5" stroke-width="0.493607" stroke-linecap="round" stroke-linejoin="round"/>
<path d="M1786.99 217.333C1781.66 213.427 1782.45 205.022 1782.45 205.022C1782.45 205.022 1788.71 202.108 1794.04 206.014C1799.37 209.921 1800.72 220.003 1800.72 220.003C1800.72 220.003 1792.33 221.256 1786.99 217.333Z" stroke="#C19D60" stroke-width="2" stroke-linejoin="round"/>
<path d="M1599.84 169.051C1625.5 219.565 1675.37 245.526 1717.54 236.004C1731.79 232.781 1745.73 226.109 1770.61 198.085C1800.08 164.879 1820.25 174.38 1825.4 176.347C1840.58 182.122 1842.74 201.534 1837.02 210.68C1836.33 211.797 1835.24 213.731 1834.49 214.632" stroke="#C19D60" stroke-width="2" stroke-linejoin="round"/>
<path d="M1834.74 214.353C1834.74 214.353 1836.34 228.629 1814 226.297C1785.23 223.305 1787.05 235.577 1787.05 235.577C1787.05 235.577 1781.95 225.686 1786.54 220.958C1791.14 216.229 1798.32 216.807 1798.32 216.807C1798.32 216.807 1796.11 206.449 1802.55 201.845C1805.4 199.788 1810.28 200.003 1810.28 200.003C1810.28 200.003 1799.32 210.008 1815.05 217.977C1825.84 223.454 1834.74 214.353 1834.74 214.353Z" fill="#C19D60"/>
<path d="M1834.74 214.353C1834.74 214.353 1836.34 228.629 1814 226.297C1785.23 223.305 1787.05 235.577 1787.05 235.577C1787.05 235.577 1781.95 225.686 1786.54 220.958C1791.14 216.229 1798.32 216.807 1798.32 216.807C1798.32 216.807 1796.11 206.449 1802.55 201.845C1805.4 199.788 1810.28 200.003 1810.28 200.003C1810.28 200.003 1799.32 210.008 1815.05 217.977C1825.84 223.454 1834.74 214.353 1834.74 214.353Z" stroke="#C19D60" stroke-width="2" stroke-linejoin="round"/>
<path d="M1861.03 181.045C1867.95 169.135 1854.93 159.759 1854.93 159.759C1854.93 159.759 1859.34 169.834 1851.16 177.156C1842.99 184.479 1834.81 182.106 1834.22 182.338C1833.63 182.569 1853.96 193.219 1861.03 181.045Z" stroke="#C19D60" stroke-width="2" stroke-linejoin="round"/>
<path d="M1599.9 169.861C1611.03 249.525 1679.47 240.308 1662.44 287.052" stroke="#C19D60" stroke-width="2" stroke-linejoin="round"/>
<path d="M1619.2 209.364C1659.3 252.479 1725.54 213.989 1698.21 179.737C1692.48 172.561 1685.37 170.757 1682.41 165.253C1680.94 162.523 1681.36 160.033 1682.41 158.669L1679.77 158.669C1677.35 160.509 1673.91 165.227 1677.14 172.495C1686.87 194.313 1667.67 209.447 1648.17 204.755C1589.24 190.557 1602.08 130.358 1602.08 130.358C1601.71 131.156 1601.26 132.424 1600.77 133.65C1592.08 155.576 1598.74 187.347 1619.2 209.364Z" fill="#C19D60"/>
<path d="M1584.84 316.652C1580.44 319.61 1570.31 325.956 1555.85 326.917C1538.06 328.105 1518.13 319.056 1513.65 314.046" stroke="#C19D60" stroke-width="2" stroke-linecap="round" stroke-linejoin="round"/>
<path d="M1584.25 315.478C1578.29 317.909 1561.22 323.265 1543.68 316.355C1539.53 314.716 1536.29 312.876 1533.4 310.754" stroke="#C19D60" stroke-width="2" stroke-linecap="round" stroke-linejoin="round"/>
<path d="M1583.4 312.453C1577.57 313.575 1567.71 314.134 1557 310.257C1554.01 309.175 1552.11 308.779 1549.86 307.462" stroke="#C19D60" stroke-width="2" stroke-linecap="round" stroke-linejoin="round"/>
<path d="M1547.81 308.01C1549.96 307.645 1551.42 305.605 1551.06 303.453C1550.7 301.301 1548.66 299.852 1546.51 300.217C1544.36 300.583 1542.91 302.623 1543.27 304.775C1543.63 306.927 1545.66 308.376 1547.81 308.01Z" fill="#C19D60" stroke="#C19D60" stroke-width="2" stroke-linecap="round" stroke-linejoin="round"/>
<path d="M1530.69 310.644C1532.85 310.279 1534.3 308.238 1533.94 306.086C1533.58 303.934 1531.55 302.486 1529.39 302.851C1527.24 303.216 1525.79 305.256 1526.15 307.408C1526.51 309.56 1528.54 311.009 1530.69 310.644Z" fill="#C19D60" stroke="#C19D60" stroke-width="2" stroke-linecap="round" stroke-linejoin="round"/>
<path d="M1512.26 313.936C1514.41 313.571 1515.86 311.53 1515.51 309.378C1515.15 307.226 1513.11 305.778 1510.96 306.143C1508.81 306.508 1507.36 308.548 1507.72 310.7C1508.08 312.852 1510.11 314.301 1512.26 313.936Z" fill="#C19D60" stroke="#C19D60" stroke-width="2" stroke-linecap="round" stroke-linejoin="round"/>
<path d="M1629.34 328.48C1678.38 314.022 1663 285.5 1663 285.5C1663 285.5 1652.83 311.896 1625.55 309.757C1585.74 306.623 1599.9 276.047 1599.9 276.047C1599.9 276.047 1589.95 279.706 1585.63 286.484C1575.9 301.721 1587.36 320.915 1587.36 320.915C1587.36 320.915 1571.6 326.047 1565.84 339.928C1560.08 353.81 1579.04 371.076 1579.04 371.076C1579.04 371.076 1566.21 347.089 1629.34 328.48Z" stroke="#C19D60" stroke-width="2" stroke-linecap="round" stroke-linejoin="round"/>
<path d="M1830.18 88.1544C1826.95 10.1139 1727.1 -0.51912 1725.19 57.9574C1724.78 70.2112 1730.86 77.8087 1729.14 86.1013C1728.28 90.2095 1725.67 92.6963 1723.47 93.3732L1725.55 94.994C1729.52 94.8699 1737.03 93.3033 1739.99 82.8815C1748.84 51.573 1781.7 50.4305 1797.08 70.6573C1843.53 131.798 1780.15 187.75 1780.15 187.75C1781.2 187.169 1782.61 186.806 1784.14 185.849C1811.36 168.705 1831.41 128.515 1829.78 88.6738L1830.18 88.1544Z" fill="#C19D60"/>
<path d="M1202.08 286.725C1207.83 290.931 1206.98 299.982 1206.98 299.982C1206.98 299.982 1200.22 303.12 1194.47 298.914C1188.71 294.707 1187.26 283.85 1187.26 283.85C1187.26 283.85 1196.31 282.5 1202.08 286.725Z" stroke="#C19D60" stroke-width="2" stroke-linejoin="round"/>
<path d="M1403.97 338.716C1376.29 284.322 1322.49 256.366 1277 266.62C1261.62 270.091 1246.59 277.275 1219.74 307.451C1187.95 343.209 1166.2 332.977 1160.64 330.859C1144.26 324.641 1141.94 303.738 1148.11 293.89C1148.85 292.687 1150.02 290.604 1150.83 289.634" stroke="#C19D60" stroke-width="2" stroke-linejoin="round"/>
<path d="M1150.57 289.934C1150.57 289.934 1148.84 274.562 1172.93 277.073C1203.97 280.295 1202.01 267.08 1202.01 267.08C1202.01 267.08 1207.52 277.73 1202.56 282.822C1197.6 287.914 1189.85 287.292 1189.85 287.292C1189.85 287.292 1192.24 298.445 1185.29 303.403C1182.21 305.618 1176.94 305.387 1176.94 305.387C1176.94 305.387 1188.78 294.613 1171.8 286.032C1160.17 280.134 1150.57 289.934 1150.57 289.934Z" fill="#C19D60"/>
<path d="M1150.57 289.934C1150.57 289.934 1148.84 274.562 1172.93 277.073C1203.97 280.295 1202.01 267.08 1202.01 267.08C1202.01 267.08 1207.52 277.73 1202.56 282.822C1197.6 287.914 1189.85 287.292 1189.85 287.292C1189.85 287.292 1192.24 298.445 1185.29 303.403C1182.21 305.618 1176.94 305.387 1176.94 305.387C1176.94 305.387 1188.78 294.613 1171.8 286.032C1160.17 280.134 1150.57 289.934 1150.57 289.934Z" stroke="#C19D60" stroke-width="2" stroke-linejoin="round"/>
<path d="M1122.2 325.801C1114.74 338.626 1128.78 348.723 1128.78 348.723C1128.78 348.723 1124.03 337.874 1132.85 329.988C1141.67 322.103 1150.49 324.658 1151.13 324.409C1151.76 324.16 1129.83 312.692 1122.2 325.801Z" stroke="#C19D60" stroke-width="2" stroke-linejoin="round"/>
<path d="M1403.91 337.845C1391.9 252.062 1318.07 261.987 1336.44 211.651" stroke="#C19D60" stroke-width="2" stroke-linejoin="round"/>
<path d="M1383.08 295.308C1339.82 248.881 1268.36 290.327 1297.85 327.211C1304.03 334.938 1311.7 336.881 1314.9 342.808C1316.48 345.747 1316.02 348.428 1314.9 349.898L1317.74 349.898C1320.35 347.917 1324.07 342.836 1320.58 335.01C1310.08 311.516 1330.79 295.219 1351.83 300.271C1415.4 315.559 1401.55 380.383 1401.55 380.383C1401.95 379.524 1402.44 378.159 1402.97 376.838C1412.34 353.228 1405.15 319.017 1383.08 295.308Z" fill="#C19D60"/>
<path d="M1420.16 179.777C1424.9 176.592 1435.83 169.759 1451.43 168.725C1470.62 167.445 1492.11 177.189 1496.95 182.584" stroke="#C19D60" stroke-width="2" stroke-linecap="round" stroke-linejoin="round"/>
<path d="M1420.79 181.043C1427.22 178.425 1445.63 172.657 1464.55 180.098C1469.03 181.862 1472.52 183.844 1475.64 186.129" stroke="#C19D60" stroke-width="2" stroke-linecap="round" stroke-linejoin="round"/>
<path d="M1421.71 184.299C1428 183.09 1438.63 182.489 1450.18 186.664C1453.41 187.828 1455.46 188.255 1457.89 189.673" stroke="#C19D60" stroke-width="2" stroke-linecap="round" stroke-linejoin="round"/>
<path d="M1460.1 189.083C1457.78 189.477 1456.21 191.674 1456.6 193.991C1456.98 196.308 1459.18 197.868 1461.5 197.475C1463.82 197.082 1465.39 194.885 1465 192.567C1464.61 190.25 1462.42 188.69 1460.1 189.083Z" fill="#C19D60" stroke="#C19D60" stroke-width="2" stroke-linecap="round" stroke-linejoin="round"/>
<path d="M1478.56 186.247C1476.24 186.64 1474.68 188.838 1475.06 191.155C1475.45 193.472 1477.64 195.032 1479.96 194.639C1482.28 194.246 1483.85 192.048 1483.46 189.731C1483.08 187.414 1480.88 185.854 1478.56 186.247Z" fill="#C19D60" stroke="#C19D60" stroke-width="2" stroke-linecap="round" stroke-linejoin="round"/>
<path d="M1498.45 182.702C1496.13 183.095 1494.56 185.293 1494.95 187.61C1495.34 189.927 1497.53 191.487 1499.85 191.094C1502.17 190.701 1503.74 188.503 1503.35 186.186C1502.96 183.869 1500.77 182.309 1498.45 182.702Z" fill="#C19D60" stroke="#C19D60" stroke-width="2" stroke-linecap="round" stroke-linejoin="round"/>
<path d="M1336 213.5C1336 213.5 1319.31 183.264 1372.21 167.696C1440.31 147.658 1426.47 121.827 1426.47 121.827C1426.47 121.827 1446.93 140.42 1440.71 155.368C1434.5 170.316 1417.49 175.842 1417.49 175.842C1417.49 175.842 1429.86 196.511 1419.37 212.918C1414.7 220.217 1403.96 224.157 1403.96 224.157C1403.96 224.157 1419.24 191.231 1376.3 187.857C1346.86 185.554 1336 213.5 1336 213.5Z" stroke="#C19D60" stroke-width="2" stroke-linecap="round" stroke-linejoin="round"/>
<path d="M1155.48 425.829C1158.97 509.864 1266.69 521.314 1268.75 458.345C1269.18 445.15 1262.62 436.969 1264.49 428.039C1265.41 423.616 1268.23 420.938 1270.6 420.209L1268.36 418.464C1264.08 418.597 1255.97 420.284 1252.78 431.507C1243.24 465.22 1207.78 466.45 1191.19 444.67C1141.08 378.833 1209.45 318.582 1209.45 318.582C1208.33 319.208 1206.8 319.598 1205.16 320.629C1175.79 339.09 1154.15 382.368 1155.92 425.269L1155.48 425.829Z" fill="#C19D60"/>
<defs>
<clipPath id="clip0_236_7959">
<rect width="118.61" height="105.634" fill="white" transform="matrix(-1 8.73771e-08 8.74685e-08 1 587.477 274.749)"/>
</clipPath>
</defs>
</svg>
