<svg width="1920" height="526" viewBox="0 0 1920 526" fill="none" xmlns="http://www.w3.org/2000/svg">
<g clip-path="url(#clip0_1198_2848)">
<path d="M1229.83 279.3C1235.49 269.595 1245.45 269.101 1263.43 268.237C1276.2 267.62 1278.64 257.545 1278.64 257.545L1280.51 259.076C1280.51 259.076 1280.36 269.842 1274.4 281.053C1258.41 311.129 1228.96 298.61 1228.96 298.61C1228.96 298.61 1225.46 286.757 1229.83 279.275V279.3Z" stroke="#C19D60" stroke-width="1.8" stroke-linejoin="round"/>
<path d="M1244.04 330.908C1243.25 326.019 1240.59 313.672 1230.32 302.412C1230.32 302.412 1220.66 291.794 1205.11 286.658C1171.06 275.398 1127.22 306.141 1088.02 315.277C1060.89 321.599 1019.79 321.352 961.764 287.991" stroke="#C19D60" stroke-width="2" stroke-linejoin="round"/>
<path d="M1211.93 367.232C1229.55 339.106 1215.66 314.29 1235.89 309.055C1256.11 314.29 1242.22 339.106 1259.84 367.232C1275.26 391.851 1298.42 409.606 1298.77 445.461C1298.99 468.993 1278.81 501.588 1235.89 488.624C1192.96 501.588 1172.81 468.993 1173 445.461C1173.32 409.631 1196.49 391.876 1211.93 367.232Z" fill="#C19D60" stroke="#C19D60" stroke-width="2" stroke-miterlimit="10"/>
<path d="M1232.81 476.995L1235.89 473.908L1238.97 476.995C1240.94 478.97 1241.04 482.106 1239.26 484.205C1241.36 482.427 1244.49 482.526 1246.46 484.502L1249.54 487.588L1246.46 490.675C1244.53 492.601 1241.53 492.749 1239.43 491.119C1241.06 493.218 1240.91 496.231 1238.99 498.157L1235.91 501.244L1232.83 498.157C1230.86 496.182 1230.76 493.046 1232.53 490.947C1230.44 492.725 1227.31 492.626 1225.34 490.65L1222.26 487.564L1225.34 484.477C1227.26 482.551 1230.27 482.403 1232.36 484.032C1230.74 481.934 1230.88 478.921 1232.81 476.995Z" fill="#C19D60"/>
<path d="M1151.76 364.763C1166.77 348.91 1161.03 331.106 1174.75 330.365C1187.12 336.366 1174.95 350.564 1182.66 370.986C1189.44 388.864 1202.06 403.334 1197.64 426.496C1194.74 441.707 1177.51 460.104 1151.49 446.152C1122.15 448.943 1113.35 425.286 1116.53 410.125C1121.38 387.061 1138.61 378.616 1151.76 364.738V364.763Z" fill="#F7F6F5" stroke="#C19D60" stroke-width="2" stroke-linejoin="round"/>
<path d="M1150.02 441.239L1152.41 439.658L1153.98 442.053C1154.99 443.584 1154.65 445.634 1153.24 446.745C1154.82 445.856 1156.84 446.35 1157.85 447.881L1159.43 450.276L1157.04 451.857C1155.56 452.844 1153.59 452.548 1152.45 451.239C1153.22 452.795 1152.75 454.721 1151.25 455.709L1148.86 457.289L1147.28 454.894C1146.27 453.363 1146.62 451.313 1148.02 450.202C1146.44 451.091 1144.42 450.597 1143.41 449.066L1141.83 446.671L1144.23 445.091C1145.7 444.103 1147.67 444.399 1148.81 445.708C1148.04 444.152 1148.51 442.226 1150.02 441.239Z" fill="#C19D60"/>
<path d="M1178.08 390.346C1186.11 400.618 1187.99 414.125 1182.76 425.163C1177.32 436.695 1166.38 440.794 1163.99 441.634" stroke="#C19D60" stroke-width="2" stroke-linejoin="round"/>
<path d="M1218.76 293.177C1217.46 289.103 1215.24 279.596 1204.57 277.966C1192.62 276.139 1178.43 292.93 1174.78 330.366" stroke="#C19D60" stroke-width="2" stroke-linejoin="round"/>
<path d="M1276.44 426.152C1284.48 436.425 1286.35 449.932 1281.13 460.97C1275.68 472.502 1264.74 476.601 1262.35 477.44" stroke="#F7F6F5" stroke-width="2" stroke-linejoin="round"/>
</g>
<path d="M1011.55 394.105C1014.37 366.735 996.891 337.521 987.796 326.335C1034.93 325.927 1098.12 351.433 1084.13 419.382C1079.87 440.076 1043.45 482.889 1046.63 500.987C1049.17 515.465 1059.1 520.527 1063.75 521.248L1063.44 524.336C1056.71 524.282 1038.12 518.26 1017.5 494.612C991.723 465.052 1008.01 428.317 1011.55 394.105Z" stroke="#C19D60" stroke-width="2"/>
<path d="M1033.21 447.979C1038.5 435.617 1047.5 405.861 1041.15 385.729C1033.21 360.565 988.205 328.778 977.616 316.858C969.145 307.322 966.144 295.226 965.703 290.369" stroke="#C19D60" stroke-width="2"/>
<g clip-path="url(#clip1_1198_2848)">
<path d="M268.48 75.8818C274.148 66.1773 284.102 65.6834 302.09 64.8192C314.853 64.2018 317.293 54.127 317.293 54.127L319.165 55.6579C319.165 55.6579 319.018 66.4242 313.055 77.635C297.063 107.711 267.618 95.1919 267.618 95.1919C267.618 95.1919 264.119 83.3391 268.48 75.8571V75.8818Z" stroke="#C19D60" stroke-width="1.8" stroke-linejoin="round"/>
<path d="M282.698 127.49C281.909 122.601 279.248 110.254 268.973 98.994C268.973 98.994 259.314 88.3759 243.766 83.2397C209.713 71.9795 165.878 102.723 126.676 111.859C99.5467 118.181 58.4467 117.934 0.418945 84.5731" stroke="#C19D60" stroke-width="2" stroke-linejoin="round"/>
<path d="M250.59 163.814C268.208 135.688 254.311 110.872 274.541 105.637C294.77 110.872 280.873 135.688 298.491 163.814C313.916 188.433 337.078 206.188 337.422 242.043C337.644 265.575 317.464 298.171 274.541 285.207C231.617 298.171 211.462 265.575 211.659 242.043C211.979 206.213 235.141 188.458 250.59 163.814Z" fill="#F7F6F5" stroke="#C19D60" stroke-width="2" stroke-miterlimit="10"/>
<path d="M271.462 273.577L274.542 270.49L277.622 273.577C279.593 275.552 279.692 278.688 277.918 280.787C280.012 279.009 283.142 279.108 285.113 281.084L288.193 284.17L285.113 287.257C283.191 289.183 280.185 289.331 278.09 287.701C279.717 289.8 279.569 292.813 277.647 294.739L274.567 297.826L271.487 294.739C269.515 292.764 269.417 289.628 271.191 287.529C269.097 289.307 265.967 289.208 263.996 287.232L260.916 284.146L263.996 281.059C265.918 279.133 268.924 278.985 271.019 280.614C269.392 278.516 269.54 275.503 271.462 273.577Z" fill="#C19D60"/>
<path d="M190.42 161.345C205.426 145.492 199.685 127.688 213.409 126.947C225.779 132.948 213.606 147.146 221.319 167.568C228.095 185.446 240.711 199.916 236.3 223.078C233.392 238.289 216.169 256.686 190.149 242.734C160.802 245.525 152.006 221.868 155.184 206.707C160.038 183.643 177.262 175.198 190.42 161.32V161.345Z" fill="#C19D60" stroke="#C19D60" stroke-width="2" stroke-linejoin="round"/>
<path d="M188.671 237.821L191.061 236.24L192.638 238.635C193.648 240.166 193.303 242.216 191.899 243.327C193.476 242.438 195.496 242.932 196.506 244.463L198.083 246.858L195.693 248.439C194.215 249.426 192.244 249.13 191.11 247.821C191.874 249.377 191.406 251.303 189.903 252.291L187.513 253.871L185.936 251.476C184.925 249.945 185.27 247.895 186.675 246.784C185.098 247.673 183.077 247.179 182.067 245.648L180.49 243.253L182.88 241.673C184.359 240.685 186.33 240.981 187.463 242.29C186.7 240.734 187.168 238.808 188.671 237.821Z" fill="#C19D60"/>
<path d="M216.736 186.928C224.769 197.2 226.641 210.707 221.417 221.745C215.972 233.277 205.032 237.376 202.642 238.216" stroke="#F7F6F5" stroke-width="2" stroke-linejoin="round"/>
<path d="M257.416 89.7594C256.11 85.685 253.893 76.1781 243.224 74.5483C231.273 72.721 217.08 89.5125 213.434 126.948" stroke="#C19D60" stroke-width="2" stroke-linejoin="round"/>
<path d="M315.099 222.734C323.132 233.007 325.004 246.514 319.781 257.552C314.335 269.084 303.395 273.183 301.005 274.022" stroke="#C19D60" stroke-width="2" stroke-linejoin="round"/>
</g>
<path d="M50.2023 190.687C53.03 163.317 35.5477 134.103 26.4532 122.917C73.5823 122.509 136.773 148.015 122.786 215.964C118.526 236.658 82.1108 279.471 85.2861 297.569C87.8264 312.047 97.7618 317.109 102.412 317.83L102.093 320.919C95.3719 320.864 76.7749 314.842 56.155 291.194C30.3801 261.634 46.6678 224.899 50.2023 190.687Z" stroke="#C19D60" stroke-width="2"/>
<path d="M71.8665 244.559C77.1611 232.197 86.162 202.441 79.8084 182.31C71.8665 157.145 26.8624 125.358 16.2732 113.438C7.80184 103.902 4.80157 91.8057 4.36035 86.9494" stroke="#C19D60" stroke-width="2"/>
<g clip-path="url(#clip2_1198_2848)">
<path d="M393.3 339.033C412.846 307.83 397.428 280.298 419.871 274.49C442.314 280.298 426.897 307.83 446.442 339.033C463.554 366.346 489.251 386.043 489.633 425.821C489.879 451.929 467.491 488.09 419.871 473.708C372.251 488.09 349.89 451.929 350.109 425.821C350.464 386.071 376.16 366.374 393.3 339.033Z" fill="#C19D60" stroke="#C19D60" stroke-width="2" stroke-miterlimit="10"/>
<path d="M416.455 460.803L419.872 457.379L423.289 460.803C425.476 462.995 425.585 466.474 423.617 468.803C425.94 466.83 429.412 466.94 431.599 469.131L435.016 472.556L431.599 475.98C429.467 478.117 426.132 478.281 423.808 476.473C425.612 478.802 425.448 482.144 423.316 484.281L419.899 487.705L416.482 484.281C414.295 482.089 414.186 478.61 416.154 476.282C413.831 478.254 410.359 478.144 408.172 475.953L404.755 472.528L408.172 469.104C410.304 466.967 413.639 466.803 415.963 468.611C414.159 466.282 414.323 462.94 416.455 460.803Z" fill="#C19D60"/>
<path d="M464.867 404.398C473.778 415.795 475.856 430.78 470.061 443.026C464.019 455.819 451.882 460.367 449.23 461.298" stroke="white" stroke-width="2" stroke-linejoin="round"/>
<path d="M426.595 241.479C420.308 230.713 409.264 230.165 389.309 229.206C375.149 228.521 372.442 217.344 372.442 217.344L370.365 219.042C370.365 219.042 370.529 230.987 377.144 243.424C394.885 276.791 427.552 262.902 427.552 262.902C427.552 262.902 431.434 249.752 426.595 241.451V241.479Z" stroke="#C19D60" stroke-width="1.8" stroke-linejoin="round"/>
<path d="M410.822 298.734C411.697 293.31 414.649 279.612 426.048 267.12C426.048 267.12 436.764 255.34 454.013 249.642C491.792 237.15 540.423 271.257 583.915 281.393C614.013 288.406 659.609 288.132 723.986 251.121" stroke="#C19D60" stroke-width="2" stroke-linejoin="round"/>
<path d="M513.197 336.294C496.549 318.707 502.918 298.955 487.692 298.133C473.969 304.79 487.473 320.542 478.917 343.198C471.4 363.032 457.403 379.085 462.297 404.782C465.522 421.657 484.63 442.067 513.497 426.589C546.055 429.684 555.814 403.44 552.288 386.619C546.902 361.032 527.794 351.663 513.197 336.267V336.294Z" fill="#F7F6F5" stroke="#C19D60" stroke-width="2" stroke-linejoin="round"/>
<path d="M515.137 421.136L512.486 419.383L510.736 422.04C509.615 423.739 509.998 426.012 511.556 427.245C509.807 426.259 507.565 426.807 506.444 428.505L504.695 431.163L507.346 432.916C508.987 434.012 511.174 433.683 512.431 432.231C511.584 433.957 512.103 436.094 513.77 437.19L516.422 438.943L518.172 436.286C519.292 434.587 518.91 432.313 517.351 431.081C519.101 432.067 521.343 431.519 522.463 429.82L524.213 427.163L521.561 425.41C519.921 424.314 517.734 424.643 516.477 426.095C517.324 424.369 516.805 422.232 515.137 421.136Z" fill="#C19D60"/>
<path d="M438.869 256.876C440.318 252.356 442.778 241.809 454.615 240.001C467.873 237.973 483.618 256.602 487.664 298.133" stroke="#C19D60" stroke-width="2" stroke-linejoin="round"/>
</g>
<path d="M566.379 166.529C572.987 201.573 605.504 231.39 620.937 241.918C562.546 259.872 474.622 251.582 466.872 162.001C464.512 134.718 493.916 68.0563 483.28 46.7516C474.771 29.7079 460.558 27.0984 454.515 27.9241L453.77 23.9695C462.139 21.5495 487.466 22.145 521.823 43.8862C564.769 71.0628 558.12 122.723 566.379 166.529Z" fill="#F7F6F5" stroke="#C19D60" stroke-width="2"/>
<path d="M519.551 107.631C517.545 124.946 517.366 165.24 532.702 187.894C551.872 216.213 619.527 239.037 637.088 249.923C651.137 258.633 659.336 272.548 661.68 278.417" stroke="#C19D60" stroke-width="2"/>
<path d="M787.854 297.466C810.621 280.974 845.4 281.528 859.944 283.866C836.219 241.915 781.361 198.982 728.398 246.096C712.268 260.445 693.004 314.578 675.372 321.015C661.265 326.164 651.71 319.951 648.695 316.2L646.126 318.062C649.61 323.986 664.441 337.381 695.899 343.558C735.221 351.281 759.395 318.081 787.854 297.466Z" stroke="#C19D60" stroke-width="2" stroke-linecap="round" stroke-linejoin="round"/>
<path d="M729.125 305.809C737.355 294.802 759.079 271.623 780.135 266.962C806.455 261.135 857.575 284.751 873.532 288.038C886.297 290.668 898.532 287.143 903.053 285.052" stroke="#C19D60" stroke-width="2" stroke-linecap="round" stroke-linejoin="round"/>
<path d="M954.888 189.478L935.157 169.779L915.469 189.478C902.798 202.158 902.184 222.295 913.584 235.676C900.167 224.269 880.041 224.884 867.414 237.563L847.727 257.262L867.414 276.961C879.691 289.245 899.027 290.167 912.4 279.813C902.052 293.194 902.973 312.542 915.25 324.826L934.937 344.525L954.624 324.826C967.296 312.147 967.91 292.009 956.51 278.628C969.927 290.035 990.052 289.421 1002.68 276.741L1022.37 257.043L1002.68 237.344C990.403 225.059 971.067 224.138 957.694 234.492C968.041 221.111 967.121 201.763 954.844 189.478H954.888Z" fill="#C19D60" stroke="#C19D60" stroke-width="2" stroke-miterlimit="10" stroke-linejoin="round"/>
<path d="M935.069 279.066C931.298 269.371 923.888 261.517 914.505 257.174C923.888 252.83 931.298 244.977 935.069 235.281C938.84 244.977 946.25 252.83 955.633 257.174C946.25 261.517 938.84 269.371 935.069 279.066Z" fill="#F7F6F5"/>
<defs>
<clipPath id="clip0_1198_2848">
<rect width="338.655" height="245.247" fill="white" transform="translate(961.345 256.672)"/>
</clipPath>
<clipPath id="clip1_1198_2848">
<rect width="338.655" height="245.247" fill="white" transform="translate(0 53.2539)"/>
</clipPath>
<clipPath id="clip2_1198_2848">
<rect width="375.71" height="272.081" fill="white" transform="matrix(-1 0 0 1 724.451 216.375)"/>
</clipPath>
</defs>
</svg>
