<svg width="1920" height="526" viewBox="0 0 1920 526" fill="none" xmlns="http://www.w3.org/2000/svg">
<g clip-path="url(#clip0_236_8360)">
<path d="M1229.83 279.298C1235.49 269.593 1245.45 269.099 1263.43 268.235C1276.2 267.618 1278.64 257.543 1278.64 257.543L1280.51 259.074C1280.51 259.074 1280.36 269.84 1274.4 281.051C1258.41 311.127 1228.96 298.608 1228.96 298.608C1228.96 298.608 1225.46 286.755 1229.83 279.273V279.298Z" stroke="#C19D60" stroke-width="1.8" stroke-linejoin="round"/>
<path d="M1244.04 330.907C1243.25 326.018 1240.59 313.671 1230.32 302.411C1230.32 302.411 1220.66 291.793 1205.11 286.657C1171.06 275.397 1127.22 306.14 1088.02 315.276C1060.89 321.598 1019.79 321.351 961.764 287.99" stroke="#C19D60" stroke-width="2" stroke-linejoin="round"/>
<path d="M1211.93 367.23C1229.55 339.105 1215.66 314.288 1235.89 309.053C1256.11 314.288 1242.22 339.105 1259.84 367.23C1275.26 391.849 1298.42 409.604 1298.77 445.459C1298.99 468.991 1278.81 501.587 1235.89 488.623C1192.96 501.587 1172.81 468.991 1173 445.459C1173.32 409.629 1196.49 391.874 1211.93 367.23Z" fill="#C19D60" stroke="#C19D60" stroke-width="2" stroke-miterlimit="10"/>
<path d="M1232.81 476.993L1235.89 473.906L1238.97 476.993C1240.94 478.968 1241.04 482.104 1239.26 484.203C1241.36 482.425 1244.49 482.524 1246.46 484.5L1249.54 487.586L1246.46 490.673C1244.53 492.599 1241.53 492.747 1239.43 491.117C1241.06 493.216 1240.91 496.229 1238.99 498.155L1235.91 501.242L1232.83 498.155C1230.86 496.18 1230.76 493.044 1232.53 490.945C1230.44 492.723 1227.31 492.624 1225.34 490.648L1222.26 487.562L1225.34 484.475C1227.26 482.549 1230.27 482.401 1232.36 484.031C1230.74 481.932 1230.88 478.919 1232.81 476.993Z" fill="#C19D60"/>
<path d="M1151.76 364.762C1166.77 348.909 1161.03 331.105 1174.75 330.364C1187.12 336.365 1174.95 350.563 1182.66 370.985C1189.44 388.863 1202.06 403.333 1197.64 426.495C1194.74 441.706 1177.51 460.103 1151.49 446.151C1122.15 448.942 1113.35 425.285 1116.53 410.124C1121.38 387.06 1138.61 378.615 1151.76 364.737V364.762Z" fill="#F7F6F5" stroke="#C19D60" stroke-width="2" stroke-linejoin="round"/>
<path d="M1150.02 441.238L1152.41 439.657L1153.98 442.052C1154.99 443.583 1154.65 445.633 1153.24 446.744C1154.82 445.855 1156.84 446.349 1157.85 447.88L1159.43 450.275L1157.04 451.856C1155.56 452.843 1153.59 452.547 1152.45 451.238C1153.22 452.794 1152.75 454.72 1151.25 455.708L1148.86 457.288L1147.28 454.893C1146.27 453.362 1146.62 451.312 1148.02 450.201C1146.44 451.09 1144.42 450.596 1143.41 449.065L1141.83 446.67L1144.23 445.09C1145.7 444.102 1147.67 444.398 1148.81 445.707C1148.04 444.151 1148.51 442.225 1150.02 441.238Z" fill="#C19D60"/>
<path d="M1178.08 390.344C1186.11 400.616 1187.99 414.123 1182.76 425.161C1177.32 436.693 1166.38 440.792 1163.99 441.632" stroke="#C19D60" stroke-width="2" stroke-linejoin="round"/>
<path d="M1218.76 293.176C1217.46 289.102 1215.24 279.595 1204.57 277.965C1192.62 276.138 1178.43 292.929 1174.78 330.365" stroke="#C19D60" stroke-width="2" stroke-linejoin="round"/>
<path d="M1276.44 426.149C1284.48 436.422 1286.35 449.929 1281.13 460.967C1275.68 472.499 1264.74 476.598 1262.35 477.437" stroke="#F7F6F5" stroke-width="2" stroke-linejoin="round"/>
</g>
<path d="M1011.55 394.102C1014.37 366.732 996.891 337.518 987.796 326.332C1034.93 325.924 1098.12 351.43 1084.13 419.379C1079.87 440.073 1043.45 482.886 1046.63 500.984C1049.17 515.462 1059.1 520.524 1063.75 521.245L1063.44 524.334C1056.71 524.279 1038.12 518.257 1017.5 494.609C991.723 465.049 1008.01 428.314 1011.55 394.102Z" stroke="#C19D60" stroke-width="2"/>
<path d="M1033.21 447.976C1038.5 435.614 1047.5 405.858 1041.15 385.727C1033.21 360.562 988.205 328.775 977.616 316.855C969.145 307.319 966.144 295.223 965.703 290.366" stroke="#C19D60" stroke-width="2"/>
<g clip-path="url(#clip1_236_8360)">
<path d="M268.48 75.8788C274.148 66.1744 284.102 65.6805 302.09 64.8162C314.853 64.1989 317.293 54.124 317.293 54.124L319.165 55.655C319.165 55.655 319.018 66.4213 313.055 77.6321C297.063 107.709 267.618 95.189 267.618 95.189C267.618 95.189 264.119 83.3362 268.48 75.8541V75.8788Z" stroke="#C19D60" stroke-width="1.8" stroke-linejoin="round"/>
<path d="M282.698 127.488C281.909 122.599 279.248 110.252 268.973 98.9921C268.973 98.9921 259.314 88.3739 243.766 83.2377C209.713 71.9776 165.878 102.721 126.676 111.857C99.5467 118.179 58.4467 117.932 0.418945 84.5712" stroke="#C19D60" stroke-width="2" stroke-linejoin="round"/>
<path d="M250.59 163.812C268.208 135.687 254.311 110.87 274.541 105.635C294.77 110.87 280.873 135.687 298.491 163.812C313.916 188.431 337.078 206.186 337.422 242.041C337.644 265.573 317.464 298.169 274.541 285.205C231.617 298.169 211.462 265.573 211.659 242.041C211.979 206.211 235.141 188.456 250.59 163.812Z" fill="#F7F6F5" stroke="#C19D60" stroke-width="2" stroke-miterlimit="10"/>
<path d="M271.462 273.574L274.542 270.487L277.622 273.574C279.593 275.549 279.692 278.685 277.918 280.784C280.012 279.006 283.142 279.105 285.113 281.081L288.193 284.167L285.113 287.254C283.191 289.18 280.185 289.328 278.09 287.699C279.717 289.797 279.569 292.81 277.647 294.736L274.567 297.823L271.487 294.736C269.515 292.761 269.417 289.625 271.191 287.526C269.097 289.304 265.967 289.205 263.996 287.229L260.916 284.143L263.996 281.056C265.918 279.13 268.924 278.982 271.019 280.612C269.392 278.513 269.54 275.5 271.462 273.574Z" fill="#C19D60"/>
<path d="M190.42 161.343C205.426 145.49 199.685 127.686 213.409 126.945C225.779 132.946 213.606 147.144 221.319 167.566C228.095 185.444 240.711 199.914 236.3 223.076C233.392 238.287 216.169 256.684 190.149 242.732C160.802 245.523 152.006 221.866 155.184 206.705C160.038 183.641 177.262 175.196 190.42 161.318V161.343Z" fill="#C19D60" stroke="#C19D60" stroke-width="2" stroke-linejoin="round"/>
<path d="M188.671 237.819L191.061 236.238L192.638 238.634C193.648 240.165 193.303 242.214 191.899 243.325C193.476 242.436 195.496 242.93 196.506 244.461L198.083 246.856L195.693 248.437C194.215 249.425 192.244 249.128 191.11 247.819C191.874 249.375 191.406 251.301 189.903 252.289L187.513 253.869L185.936 251.474C184.925 249.943 185.27 247.894 186.675 246.782C185.098 247.671 183.077 247.177 182.067 245.646L180.49 243.251L182.88 241.671C184.359 240.683 186.33 240.979 187.463 242.288C186.7 240.732 187.168 238.806 188.671 237.819Z" fill="#C19D60"/>
<path d="M216.736 186.925C224.769 197.197 226.641 210.704 221.418 221.742C215.972 233.274 205.032 237.373 202.642 238.213" stroke="#F7F6F5" stroke-width="2" stroke-linejoin="round"/>
<path d="M257.416 89.7575C256.11 85.6831 253.893 76.1761 243.224 74.5464C231.273 72.7191 217.08 89.5105 213.434 126.946" stroke="#C19D60" stroke-width="2" stroke-linejoin="round"/>
<path d="M315.099 222.73C323.132 233.003 325.004 246.51 319.781 257.548C314.335 269.08 303.395 273.179 301.005 274.018" stroke="#C19D60" stroke-width="2" stroke-linejoin="round"/>
</g>
<path d="M50.2023 190.683C53.03 163.313 35.5477 134.099 26.4532 122.913C73.5823 122.505 136.773 148.011 122.786 215.96C118.526 236.654 82.1108 279.467 85.2861 297.565C87.8264 312.043 97.7618 317.105 102.412 317.826L102.093 320.915C95.3719 320.86 76.7749 314.838 56.155 291.19C30.3801 261.63 46.6678 224.895 50.2023 190.683Z" stroke="#C19D60" stroke-width="2"/>
<path d="M71.8665 244.555C77.1611 232.193 86.162 202.437 79.8084 182.306C71.8665 157.141 26.8624 125.354 16.2732 113.434C7.80184 103.898 4.80157 91.8018 4.36035 86.9455" stroke="#C19D60" stroke-width="2"/>
<g clip-path="url(#clip2_236_8360)">
<path d="M393.3 339.032C412.845 307.829 397.428 280.297 419.871 274.489C442.314 280.297 426.896 307.829 446.442 339.032C463.554 366.345 489.25 386.042 489.633 425.82C489.879 451.928 467.491 488.089 419.871 473.707C372.251 488.089 349.89 451.928 350.109 425.82C350.464 386.07 376.16 366.373 393.3 339.032Z" fill="#C19D60" stroke="#C19D60" stroke-width="2" stroke-miterlimit="10"/>
<path d="M416.455 460.803L419.872 457.379L423.289 460.803C425.476 462.995 425.585 466.474 423.617 468.803C425.94 466.83 429.412 466.94 431.599 469.131L435.016 472.556L431.599 475.98C429.467 478.117 426.132 478.281 423.808 476.473C425.612 478.802 425.448 482.144 423.316 484.281L419.899 487.705L416.482 484.281C414.295 482.089 414.186 478.61 416.154 476.282C413.83 478.254 410.359 478.144 408.172 475.953L404.755 472.528L408.172 469.104C410.304 466.967 413.639 466.803 415.963 468.611C414.158 466.282 414.322 462.94 416.455 460.803Z" fill="#C19D60"/>
<path d="M464.867 404.396C473.778 415.793 475.856 430.778 470.06 443.024C464.019 455.817 451.882 460.365 449.23 461.296" stroke="white" stroke-width="2" stroke-linejoin="round"/>
<path d="M426.596 241.478C420.308 230.712 409.264 230.164 389.309 229.205C375.149 228.52 372.443 217.343 372.443 217.343L370.365 219.041C370.365 219.041 370.529 230.986 377.144 243.423C394.886 276.79 427.552 262.901 427.552 262.901C427.552 262.901 431.434 249.751 426.596 241.45V241.478Z" stroke="#C19D60" stroke-width="1.8" stroke-linejoin="round"/>
<path d="M410.822 298.733C411.697 293.309 414.649 279.611 426.049 267.119C426.049 267.119 436.764 255.339 454.014 249.641C491.792 237.149 540.424 271.256 583.916 281.392C614.013 288.405 659.61 288.131 723.987 251.121" stroke="#C19D60" stroke-width="2" stroke-linejoin="round"/>
<path d="M513.197 336.293C496.549 318.706 502.918 298.954 487.692 298.132C473.969 304.789 487.473 320.541 478.917 343.197C471.4 363.031 457.404 379.084 462.297 404.781C465.522 421.656 484.631 442.066 513.498 426.588C546.055 429.683 555.814 403.439 552.288 386.618C546.903 361.031 527.794 351.662 513.197 336.266V336.293Z" fill="#F7F6F5" stroke="#C19D60" stroke-width="2" stroke-linejoin="round"/>
<path d="M515.137 421.136L512.486 419.383L510.736 422.04C509.616 423.739 509.998 426.012 511.556 427.245C509.807 426.259 507.565 426.807 506.445 428.505L504.695 431.163L507.347 432.916C508.987 434.012 511.174 433.683 512.431 432.231C511.584 433.957 512.103 436.094 513.771 437.19L516.422 438.943L518.172 436.286C519.293 434.587 518.91 432.313 517.352 431.081C519.101 432.067 521.343 431.519 522.464 429.82L524.213 427.163L521.562 425.41C519.921 424.314 517.734 424.643 516.477 426.095C517.324 424.369 516.805 422.232 515.137 421.136Z" fill="#C19D60"/>
<path d="M438.869 256.875C440.318 252.355 442.778 241.808 454.615 240C467.873 237.972 483.619 256.601 487.664 298.132" stroke="#C19D60" stroke-width="2" stroke-linejoin="round"/>
</g>
<path d="M566.379 166.527C572.987 201.571 605.504 231.388 620.937 241.916C562.546 259.87 474.622 251.58 466.872 161.999C464.512 134.716 493.916 68.0543 483.28 46.7497C474.771 29.7059 460.558 27.0965 454.515 27.9222L453.77 23.9675C462.139 21.5476 487.466 22.1431 521.823 43.8843C564.769 71.0608 558.12 122.721 566.379 166.527Z" fill="#F7F6F5" stroke="#C19D60" stroke-width="2"/>
<path d="M519.551 107.63C517.545 124.945 517.366 165.239 532.702 187.893C551.872 216.212 619.527 239.036 637.088 249.922C651.137 258.632 659.336 272.547 661.68 278.416" stroke="#C19D60" stroke-width="2"/>
<path d="M787.854 297.463C810.621 280.971 845.4 281.525 859.944 283.863C836.219 241.912 781.361 198.979 728.398 246.093C712.268 260.442 693.004 314.575 675.372 321.012C661.265 326.161 651.71 319.948 648.695 316.198L646.126 318.059C649.61 323.983 664.441 337.378 695.899 343.555C735.221 351.278 759.395 318.078 787.854 297.463Z" stroke="#C19D60" stroke-width="2" stroke-linecap="round" stroke-linejoin="round"/>
<path d="M729.125 305.806C737.355 294.799 759.079 271.62 780.135 266.959C806.455 261.132 857.575 284.748 873.532 288.035C886.297 290.665 898.532 287.14 903.053 285.049" stroke="#C19D60" stroke-width="2" stroke-linecap="round" stroke-linejoin="round"/>
<path d="M954.888 189.476L935.157 169.777L915.47 189.476C902.798 202.155 902.184 222.292 913.584 235.674C900.167 224.267 880.042 224.881 867.414 237.56L847.727 257.259L867.414 276.958C879.691 289.243 899.027 290.164 912.4 279.81C902.053 293.191 902.973 312.539 915.25 324.824L934.937 344.522L954.625 324.824C967.296 312.144 967.91 292.007 956.51 278.625C969.927 290.032 990.053 289.418 1002.68 276.739L1022.37 257.04L1002.68 237.341C990.403 225.056 971.067 224.135 957.694 234.489C968.042 221.108 967.121 201.76 954.844 189.476H954.888Z" fill="#C19D60" stroke="#C19D60" stroke-width="2" stroke-miterlimit="10" stroke-linejoin="round"/>
<path d="M935.069 279.064C931.298 269.368 923.888 261.515 914.505 257.171C923.888 252.828 931.298 244.975 935.069 235.279C938.84 244.975 946.25 252.828 955.633 257.171C946.25 261.515 938.84 269.368 935.069 279.064Z" fill="#F7F6F5"/>
<defs>
<clipPath id="clip0_236_8360">
<rect width="338.655" height="245.247" fill="white" transform="translate(961.345 256.67)"/>
</clipPath>
<clipPath id="clip1_236_8360">
<rect width="338.655" height="245.247" fill="white" transform="translate(0 53.251)"/>
</clipPath>
<clipPath id="clip2_236_8360">
<rect width="375.71" height="272.081" fill="white" transform="matrix(-1 0 0 1 724.451 216.374)"/>
</clipPath>
</defs>
</svg>
