<svg width="91" height="62" xmlns="http://www.w3.org/2000/svg" fill="none">
  <path fill="white" d="m0.06551,37.05472c-1.10021,-2.6573 -3.26226,-4.8096 -6,-6c2.73774,-1.1904 4.89979,-3.3427 6,-6c1.10022,2.6573 3.26226,4.8096 5.99997,6c-2.73771,1.1904 -4.89975,3.3427 -5.99997,6z"/>
  <path stroke-linejoin="round" stroke-miterlimit="10" stroke-width="2" stroke="#C19D60" fill="#F7F6F5" d="m48.94978,19.43657l-3.3894,-3.38187l-3.3818,3.38187c-2.1768,2.17675 -2.2822,5.63395 -0.3239,7.93125c-2.3048,-1.9584 -5.762,-1.8529 -7.9312,0.3238l-3.3819,3.3819l3.3819,3.3819c2.1089,2.1089 5.4306,2.2671 7.7278,0.4896c-1.7775,2.2972 -1.6194,5.6188 0.4896,7.7278l3.3819,3.3819l3.3819,-3.3819c2.1767,-2.1767 2.2822,-5.6339 0.3238,-7.9312c2.3048,1.9583 5.762,1.8529 7.9312,-0.3239l3.3819,-3.3819l-3.3819,-3.3818c-2.1089,-2.109 -5.4305,-2.2672 -7.7278,-0.4896c1.7775,-2.2973 1.6194,-5.61889 -0.4896,-7.72785l0.0075,0z"/>
  <path fill="#C19D60" d="m45.54168,34.62622c-0.6548,-1.5817 -1.9418,-2.8628 -3.5714,-3.5714c1.6296,-0.7085 2.9166,-1.9897 3.5714,-3.5714c0.6549,1.5817 1.9419,2.8629 3.5715,3.5714c-1.6296,0.7086 -2.9166,1.9897 -3.5715,3.5714z"/>
  <path fill="white" d="m91.01788,37.05472c-1.1002,-2.6573 -3.2622,-4.8096 -6,-6c2.7378,-1.1904 4.8998,-3.3427 6,-6c1.1002,2.6573 3.2621,4.8096 6.0001,6c-2.738,1.1904 -4.8999,3.3427 -6.0001,6z"/>
</svg>